<svg xmlns="http://www.w3.org/2000/svg" width="16" height="9" viewBox="0 0 16 9"><path
					fill="#507299" d="M13.06 5.6c.48.47.99.91 1.43 1.43.19.24.37.48.51.74.2.38.02.8-.32.83h-2.13c-.55.04-.99-.18-1.35-.55-.3-.3-.57-.62-.85-.93a2.03 2.03 0 0 0-.39-.34c-.29-.2-.54-.13-.71.17-.17.3-.2.65-.22 1-.02.5-.17.62-.68.65a5.44 5.44 0 0 1-3.04-.66 6.64 6.64 0 0 1-2.05-1.92 26 26 0 0 1-2.7-4.8C.39.84.52.64.94.62h2.08c.28.01.47.17.58.44.37.92.83 1.8 1.41 2.62.15.21.31.43.53.58.25.17.44.12.55-.16.08-.17.11-.36.12-.55.06-.64.07-1.28-.03-1.92-.06-.4-.28-.66-.68-.73-.21-.04-.18-.12-.08-.23.17-.2.33-.33.66-.33h2.4c.38.08.46.25.51.63L9 3.64c-.01.14.07.58.34.68.21.07.35-.1.48-.24A8.5 8.5 0 0 0 11.17 2c.16-.33.3-.67.44-1 .1-.26.26-.39.54-.38h2.32l.2.01c.39.07.5.24.38.62-.19.6-.56 1.1-.92 1.6-.39.53-.8 1.05-1.18 1.58-.36.5-.33.74.11 1.17z"/></svg>