<svg xmlns="http://www.w3.org/2000/svg" viewBox="0 0 213.9 90"><path d="M78.8 52.8c-.2.8-.5 1.6-.8 2.4-.3.7-.7 1.3-.7 1.3.1-.5.2-1 .4-1.5 0-.4 1.1-2.2 1.1-2.2zm.1-13c0 .5.1 1 .2 1.5s.3.9.3.9v-1c0-.2-.4-1.4-.5-1.4zm1.9.1c-.2.5-.5.9-.6 1.4-.1.4-.2.9-.2.9.2-.3.3-.6.5-.9 0-.1.3-1.4.3-1.4zm-.8 5.2c-.4.5-.7 1-1 1.5s-.5 1-.5 1c.3-.3.5-.6.7-.9.2-.2.9-1.6.8-1.6zm-2 1.7c-.1.6-.1 1.2-.2 1.8 0 .5.1 1.1.1 1.1.1-.4.2-.8.2-1.1s-.1-1.8-.1-1.8zm.6 9.6c-.4.4-.8.9-1.2 1.4l-.6 1c.3-.3.6-.5.8-.8.2-.2 1-1.6 1-1.6zm.3-24.5v1.9c.1.5.2 1.1.2 1.1.1-.4.1-.8.1-1.2 0-.3-.3-1.8-.3-1.8zm-1 4.2c-.2.4-.4.9-.5 1.3l-.2.8c.1-.3.3-.5.4-.8.1-.1.3-1.3.3-1.3zm-1-8.8v1.9c.1.5.2 1.1.2 1.1 0-.4.1-.8.1-1.2 0-.3-.3-1.8-.3-1.8zM81 49.9c-.3-.2-.6-.4-.8-.6-.2-.3-.4-.6-.5-.9v-.5c0-.2.1-.3.2-.5.2-.3.5-.5.8-.6.4-.2.7-.3.7-1.5 0-.3 0-.6-.1-.9-.1-.3-.2-.5-.4-.7-.2-.1-.4-.2-.6-.2-.4 0-.9.1-1.2.5-.1.1-.3.3-.3.5-.1.2-.2.4-.4.6-.2.1-.4.2-.7.2h-.2c-.2.2-.3.5-.4.8l-.6-.1c0-.4.2-.9.6-1.2.1-.1.2-.1.3-.1h.3c.2 0 .3-.1.5-.5.1-.3.3-.5.5-.7s.4-.3.7-.4c.6-.2 1.2-.1 1.7.2.3.3.5.6.6.9.1.3.2.7.1 1.1 0 1.3-.4 1.7-.9 1.9-.2.1-.4.3-.6.5-.1.1-.1.2-.1.3v.3c.1.3.2.5.4.7.2.2.4.4.7.5l-.3.4zm-4.8-16.7c0-.3 0-.6.1-.9 0-.3.2-.5.4-.7.2-.2.5-.3.7-.3.9 0 .9 0 1.2-.5l.1-.1c.1-.2.1-.5.1-.7-.1-.3 0-.6.1-.9.2-.3.4-.5.7-.6l.1.5c-.4.1-.5.4-.5 1 0 .3 0 .7-.2 1-.4.6-.6.7-1.6.7-.3 0-.6.3-.7.6-.1.2-.1.5-.1.7l-.4.2zm1.4 7.4h-.5c0-.1.2-2 1.3-2 .3 0 .6-.2.8-.5.4-.3.7-.8.9-1.3v.1l.4-.3v.5c0 .2-.1.3-.2.4-.3.5-1.1 1.6-2 1.5-.5.1-.7 1.2-.7 1.6zm-33-19.7c-.4 0-.8-.1-1.1-.1-.7-.3-1.4-.7-1.9-1.2-.6.6-1.4 1-2.3 1.1-1.5.3-3-.2-4-1.3-.6.7-1.4 1.1-2.3 1.4-.8.2-1.6.1-2.4-.1s-1.5-.6-2.1-1.2c-.9-.7-1.5-1.6-1.9-2.6s-.5-2.1-.4-3.2c.3-2.6.9-3.9 2.4-5 1.1-.9 2.5-1.4 3.9-1.4h.4c.9-.1 1.9 0 2.8.2.4.1.8.2 1.3.4.4.2.9.3 1.3.3.1-.2.2-.5.2-.8.1-.5.2-.9.5-1.4.2-.3.4-.5.6-.8-.3-.5-.6-1.1-.7-1.7 0-.7.2-1.4.7-1.9.3-.3.6-.5.9-.6h1c.3 0 .7 0 1 .1.6.2 1.1.7 1.4 1.3.1.3.1.6.1 1 0 .7-.2 1.4-.5 2 .2.1.5.5.6.6.4.4.6 1 .6 1.5 0 .3.2.6.5.8.4 0 .7-.1 1-.3.5-.2.9-.4 1.5-.5 1.4-.3 2.9-.1 4.3.4.1 0 .3.1.4.1.7.2 1.4.6 2 1.2.5.5 1 1.1 1.3 1.8.7 1.2 1.1 2.6 1.1 4-.2 1.2-.6 2.4-1.2 3.5-.5.9-1.2 1.7-2.2 2.1-1.4.4-3 .4-4.4-.1-.5-.3-.9-.6-1.4-1-.5.5-1.1 1-1.7 1.2-.4.2-.8.3-1.3.2zm-3.1-2l.2.1c.6.5 1.2.9 1.9 1.2.7.2 1.5.2 2.1-.1.6-.3 1.2-.7 1.6-1.2l.2-.2.2.2c.5.4 1 .8 1.5 1.1 1.3.4 2.7.5 4 .1.9-.4 1.6-1 2-1.9.6-1 1-2.1 1.1-3.3 0-1.3-.3-2.6-1-3.7-.6-1.3-1.7-2.3-3-2.8l-.4-.1c-1.3-.5-2.7-.7-4-.4-.5.1-.9.3-1.3.5-.4.3-.9.4-1.3.4-.2-.1-.5-.3-.6-.5-.2-.2-.3-.5-.3-.7 0-.5-.2-.9-.5-1.3-.2-.2-.7-.8-.7-.8l-.1-.1-.1-.1c.3-.6.5-1.2.6-1.9 0-.3 0-.5-.2-.8-.1-.2-.3-.5-.5-.6-.2-.2-.4-.3-.7-.4-.2-.1-.5-.1-.8-.1s-.6 0-.9.1c-.3.1-.5.2-.8.5-.2.2-.4.5-.5.8s-.1.6-.1.9c.1.6.3 1.1.7 1.6l.1.2-.2.1c-.3.2-.5.5-.7.8-.2.4-.3.8-.4 1.2 0 .3-.1.6-.3.9-.3.5-1 .2-1.9-.1-.4-.2-.8-.3-1.2-.4-.9-.2-1.8-.3-2.6-.2h-.4c-1.3 0-2.6.5-3.6 1.3-1.4 1-1.9 2.2-2.2 4.6-.3 2.1.6 4.1 2.2 5.4 1.1 1 2.7 1.4 4.2 1.1.8-.3 1.6-.7 2.2-1.3l.2-.2.2.2c.9 1.1 2.4 1.6 3.8 1.3.8-.1 1.6-.5 2.1-1.1l.2-.3zM60.2 86l-.1-.5s3.1-.9 3.7-2.6c.5-1.3 1.3-2.2 4.1-3.5 1.3-.9 2.5-2 3.4-3.3.8-.9 1.4-1.9 1.8-3 .4-.9.8-1.8 1.4-2.6.6-.8 1-1.8 1.1-2.8 0-.4.1-.7.3-1 1-1.5 1.4-2.3 1.8-3l.1-.2c.7-1.4 1-2.8 1-4.4.1-.9.4-1.7.9-2.5.6-.8.8-1.8.8-2.8-.1-1.5 0-3.1.5-4.5 0 0 1-6.3.5-8.9-.5-1.3-.8-2.4-1-3.4-.5-1.4-.7-3-.7-4.5.2-2.1-.4-4.2-1.5-6l-.5-.8c-1.1-1.6-2.3-3.4-2.4-4.7s-.9-2.7-2.6-3.9c-.5-.4-1-1-1.3-1.6s-.7-1.1-1.2-1.6c-.6-.1-1.3-.2-1.9-.2h-.3l.3-1.8c-1.1 0-2.2-.1-3.2-.3-.6-.2-1.1-.5-1.6-.9-1-.9-2.4-1.4-3.8-1.4-2.1.1-4 .4-4.7.5l.5.7c.4.6.7 1.3.9 2l.2.6c.3.8.3 1.7.1 2.5-.2.6-.4 1.3-.7 1.9s-.6 1.2-1 1.7c-.3.5.4 2.7.9 3.5 1.6 2.1 3.2 4.1 5 6.1v.2l-.1.2c-.5.6-.7 1.4-.7 2.2.1.3.3.5.6.7h.1c.5.2 1.5.7 1.3 1.4 0 .1-.1.2-.1.3 0 0-.1.1-.1.2v.2c.1.2.2.4.2.7 0 .2 0 .5-.1.7v.1H62c-.5.3-.9.7-1 1.3 0 .5.1.9.3 1.4.2.4.5.8.9 1.1.3.3.5.6.7 1 0 .4.2.7.4 1l.1.2c.1.2.1.4 0 .7-.1.2-.2.4-.4.5-.3.4-.6.8-.7 1.2 0 .4.1.9.3 1.3.1.3.2.6.1.9-.1.4-.3.7-.6.9-.4.4-.7.9-.8 1.4-.2 1-.2 2 0 3 .2 1.2.1 2.3-.1 3.5-.1.6-.4 1.1-.9 1.6-.3.3-.6.7-.7 1.2-.1.5-.1 1.1 0 1.6.1.6 0 1.3-.2 1.9-.4 1-1.1 1.9-1.9 2.7-.9.8-1.6 1.8-2.2 2.9-.5 1-.9 2.1-1.2 3.2-.2.9-.5 1.7-.9 2.5l-.6-.7c.4-.8.7-1.6.9-2.5.3-1.2.7-2.3 1.3-3.3.6-1.1 1.4-2.1 2.3-3 .8-.7 1.4-1.6 1.8-2.6.1-.5.2-1.1.1-1.6-.1-.6-.1-1.2 0-1.8.2-.5.5-1 .9-1.3.4-.4.7-.8.8-1.4.2-1 .3-2.1.2-3.2-.2-1.1-.2-2.2 0-3.3.1-.7.4-1.2 1-1.7.2-.2.4-.4.5-.7.1-.2 0-.4-.1-.6-.2-.4-.3-.9-.3-1.4.2-.6.5-1.1.9-1.5.1-.1.2-.1.3-.2.1-.1.1-.2.1-.3l-.1-.2c-.3-.3-.4-.7-.5-1.1-.1-.3-.3-.6-.6-.8-.4-.3-.8-.8-1-1.3s-.3-1-.3-1.6c.1-.3.2-.6.4-.9.2-.3.5-.5.7-.7.1-.3 0-.6-.1-.9-.1-.1-.1-.3-.1-.4 0-.1.1-.3.1-.4l.1-.2c0-.1 0-.3-1-.8h-.1c-.2-.1-.4-.2-.5-.4-.1-.2-.3-.4-.3-.6-.1-.9.2-1.7.7-2.4-1.8-1.9-3.4-3.9-4.9-6-.4-.6-1.5-3.3-.9-4.1.4-.5.7-1.1 1-1.6s.5-1.1.7-1.6c.2-.8.2-1.6-.1-2.3l-.5-.4c-.2-.7-.4-1.3-.8-1.9-.2-.3-.4-.7-.7-1l-.3-.3.4-.1s2.4-.4 5.1-.6c1.5 0 3 .5 4.1 1.5.4.3.9.6 1.4.8 1.1.2 2.3.3 3.4.3h.4l-.3 1.8c.7 0 1.4.1 2 .3.5.5.9 1 1.3 1.7.2.6.6 1.1 1.1 1.5 1.8 1.3 2.7 2.7 2.8 4.3.1 1.2 1.3 3 2.3 4.5l.5.8c1.2 1.9 1.8 4.1 1.6 6.3 0 1.5.2 2.9.7 4.3.3 1 .6 2.1.9 3.6.6 2.7-.4 8.9-.5 9.1-.4 1.4-.6 2.9-.5 4.4.1 1.1-.2 2.1-.8 3-.5.7-.7 1.5-.8 2.3 0 1.6-.4 3.1-1.1 4.5l-.2.1c-.4.7-.8 1.5-1.8 3-.1.2-.2.5-.2.8-.1 1.1-.5 2.2-1.2 3.1-.6.8-1.1 1.6-1.4 2.5-.4 1.1-1.1 2.2-1.9 3.1-1 1.4-2.2 2.5-3.6 3.4-2.6 1.2-3.4 2-3.8 3.2-.6 1.9-3.8 2.8-3.9 2.8zm-38.5-.1c-2.8-.6-5.3-2.2-7.1-4.4-1.3-1.4-2.4-3-3.1-4.8-.6-1.5-1.6-2.9-2.8-4C7.2 70.9 3.9 67 3.9 67l-.2-.3 1.5-.6c-1.1-2.3-2.1-4.6-2.9-7-.2-.9-.3-1.4-.5-1.8-.3-1.1-.5-1.7-.6-5.5 0-.7.1-1.5.2-2.2 0-.1.1-.3.1-.4l.3-.3c.1-.1.2-.1.3-.1-.4-.5-.8-1.1-1-1.7-.2-1-.2-2-.1-3v-.8c0-4.2.7-10.6.7-10.7v-.4l1.1.7c.1-1.1.4-2.1.8-3.1.2-.5.4-1 .6-1.6C5.5 24.3 7.5 18.5 16 12c5.5-4.3 12.4-3.1 12.5-3.1l.5.1-.4.3-.5.4-.1.1c-.3.3-.5.6-.6.9-.6 1-.9 2.2-.9 3.4-.1 1.5.4 3 1.4 4.2 1.3 1.6 2.2 1.8 2.2 1.8l.5.1-.4.3s-4.1 3.7-5.3 5.1-2.4 3.1-4.1 8.1c-.8 3.4-1.2 6.8-1 10.3.5 2.7 1.2 5.3 2.3 7.9 1.2 2.6 2.1 5.4 2.8 8.2.1.6.2 1.3.2 1.9 0 .8.1 1.5.3 2.2.6 1.3 1.3 2.6 2.1 3.8.9 1.3 1.7 2.6 2.4 4l-.4.2c-.7-1.4-1.5-2.7-2.4-4-.9-1.2-1.6-2.5-2.2-3.9-.2-.8-.3-1.6-.3-2.4 0-.6-.1-1.2-.2-1.8-.7-2.7-1.6-5.4-2.8-8-1.1-2.6-1.8-5.3-2.3-8-.2-3.5.2-7.1 1-10.5 1.7-5 2.9-6.7 4.2-8.2 1-1.2 4.1-4 5.1-4.9-.8-.5-1.5-1.1-2.1-1.9-.5-.6-1-1.3-1.2-2.1-.3-.8-.3-1.6-.3-2.4 0-1.3.4-2.5 1-3.6.2-.4.4-.7.7-1l.1-.1.1-.1c-4.1-.4-8.2.7-11.6 3.1C7.9 18.8 6 24.6 4.7 28.4c-.2.6-.4 1.1-.6 1.6-.4 1.1-.6 2.2-.8 3.4v.4l-1.1-.7c-.2 1.4-.7 6.7-.6 10.3v.8c-.1.9-.1 1.9.1 2.8.3.8.7 1.4 1.3 2l.7.7-.9-.3c-.2-.1-.4-.1-.6 0-.1 0-.1.1-.1.2s-.1.1-.1.2c-.1.7-.2 1.4-.2 2.1.1 3.7.3 4.3.6 5.3.2.6.4 1.2.5 1.9.8 2.4 1.8 4.8 3 7.1l.1.2-1.5.6c.8.9 3.3 3.9 4.7 5.4 1.2 1.2 2.2 2.6 2.9 4.2.7 1.7 1.7 3.3 3 4.7 1.7 2.1 4.1 3.6 6.8 4.2l-.2.4zm6.9-44.7c0 .3-.1.6-.2.8s-.3.4-.5.6c-.2.2-.5.3-.7.4-.3.1-.7.1-1 .1h-.5c-.1 0-.3-.1-.4-.1s-.2-.1-.3-.1l-.2-.1s-.1 0-.1-.1v-.9h.1c.1 0 .1 0 .2.1l.3.1c.1.1.2.1.4.1s.3.1.5.1.3 0 .5-.1.3-.1.4-.3c.1-.1.2-.2.2-.3.1-.1.1-.2.1-.3s0-.3-.1-.4c-.1-.1-.1-.2-.2-.3s-.2-.1-.4-.2c-.2 0-.4-.1-.5-.1h-.7s-.1 0-.1-.1v-.7s0-.1.1-.1h.5c.2 0 .3 0 .5-.1.1 0 .2-.1.4-.2.1-.1.2-.2.2-.3.1-.1.1-.2.1-.4V38c0-.1-.1-.2-.2-.2-.1-.1-.2-.1-.3-.2-.1 0-.3-.1-.4 0-.2 0-.3 0-.5.1-.1 0-.3.1-.4.1l-.3.1s-.1.1-.2.1v-.8c0-.1.1-.2.1-.2l.2-.1c.1-.1.2-.1.4-.1.2-.1.3-.1.5-.1h.6c.3 0 .6 0 .8.1l.6.3c.2.1.3.3.4.5s.1.4.1.7c0 .2 0 .4-.1.5 0 .2-.1.3-.2.4l-.3.3c-.1.1-.3.1-.4.2.2 0 .3.1.5.2.3.2.5.4.6.8-.1.2-.1.3-.1.5zm5.7 1.3c0 .1.1.2.1.3v.2c-.1 0-.1.1-.2.1h-.9s-.1 0-.1-.1v-.1l-.4-1.2h-2.2l-.4 1.2v.1l-.1.1h-.8c-.1 0-.1 0-.2-.1v-.2c0-.1 0-.2.1-.3l1.8-5.4s0-.1.1-.1l.1-.1h1.3s.1 0 .1.1l.1.1 1.6 5.4zM31.6 38l-.8 2.6h1.7l-.9-2.6zm7.9 4.8c0 .1-.1.1-.1.2h-1s-.1 0-.1-.1l-.1-.1-.5-1.4c-.1-.2-.1-.3-.2-.5-.1-.1-.1-.2-.2-.3-.1-.1-.2-.1-.3-.2-.1 0-.2-.1-.4 0h-.3V43l-.1.1c0-.1-.1-.1-.2-.1h-.8s-.1 0-.1-.1v-6l.1-.1h1s.1 0 .1.1v2.4h.7c.1 0 .2-.1.3-.2.1-.1.2-.2.2-.3.1-.2.1-.3.2-.5L38 37l.1-.1.1-.1h1s.1 0 .1.1v.3l-.1.2-.4 1.1c-.1.2-.1.3-.2.5-.1.1-.1.2-.2.4l-.3.3-.3.2c.1.1.2.1.3.2l.3.3c.1.1.2.3.3.4.1.2.2.4.2.5l.5 1.3c0 .1.1.2.1.3v-.1zm5.9-3c0 .5-.1.9-.2 1.4-.1.4-.3.7-.5 1s-.5.5-.9.6c-.4.1-.8.2-1.2.2s-.8 0-1.2-.2c-.3-.1-.6-.3-.8-.6s-.4-.6-.5-1c-.1-.5-.2-.9-.2-1.4 0-.4.1-.8.2-1.3.1-.4.3-.7.5-1s.5-.5.9-.6c.4-.2.8-.2 1.2-.2s.8.1 1.2.2c.3.1.6.3.9.6.2.3.4.6.5 1 0 .4.1.9.1 1.3zm-1.3 0c0-.3 0-.6-.1-.9 0-.2-.1-.5-.3-.7-.1-.2-.3-.3-.5-.4-.2-.1-.5-.2-.7-.2-.3 0-.5 0-.7.2-.2.1-.4.3-.5.5s-.2.4-.3.7c0 .3-.1.5-.1.8s0 .6.1.9c0 .2.1.5.3.7.1.2.3.3.5.4.2.1.5.2.7.2.3 0 .5-.1.7-.2.2-.1.4-.3.5-.5s.2-.4.3-.7c.1-.2.1-.5.1-.8zm6.9 3c0 .1-.1.1 0 0l-.3.1H50s-.1 0-.1-.1v-2.6h-2.3v2.6s-.1 0-.1.1h-1s-.1 0-.1-.1v-5.9l.1-.1h1l.1.1v2.3h2.2v-2.3l.1-.1h.9l.1.1s.1 0 .1.1v5.8zm3.3-3.7h.7c.3 0 .7 0 1 .1.2.1.5.2.7.4s.3.4.4.6c.1.2.2.5.2.8s0 .5-.1.8c-.1.2-.2.5-.4.6-.2.2-.5.3-.7.4-.4.1-.8.2-1.2.2h-1.4s-.1 0-.1-.1l-.1-.1v-4.9h-1.4s0-.1-.1-.1v-.9h2.3s.1 0 .1.1c.1.1.1.2.1.3v1.8zm1.8 1.9c0-.1 0-.3-.1-.4 0-.1-.1-.2-.2-.3-.1-.1-.2-.2-.3-.2-.2-.1-.4-.1-.6-.1h-.7v2h.7c.2 0 .4 0 .6-.1.1 0 .2-.1.3-.2.1-.1.1-.2.2-.3.1-.1.1-.3.1-.4zm3.1 5.2H22.7V33.8h36.5v12.4zm-36-.5h35.5V34.3H23.2v11.4zm32 29.3H27.1v-3h28.2v3h-.1zm-27.7-.5h27.2v-2H27.5v2zM59.7 82H22.6v-7.4h37.1V82zM23 81.6h36.3V75H23v6.6zm27-53H32V25h18v3.6zm-17.6-.4h17.2v-2.7H32.5l-.1 2.7zM53 26.1H29v-2.8h24v2.8zm-.6-2.1H29.9v-2.8h22.5V24zm-22-.5h21.5v-1.9H30.4v1.9zM51 20.1c-1.3-.1-2.6-.7-3.4-1.8-.8 1-2.1 1.6-3.4 1.6-1-.2-1.9-.7-2.6-1.5-.7.9-1.8 1.4-3 1.4-.6 0-1.2-.2-1.7-.4-.5-.3-1-.6-1.4-1.1-.9.8-2 1.4-3.2 1.7-1.1 0-2.2-.4-3-1l.3-.4c.8.6 1.7.9 2.7.9 1.1-.3 2.2-.9 3.1-1.7l.2-.2.2.2c.3.4.8.8 1.3 1.1.5.3 1 .4 1.6.5.5 0 1.1-.2 1.5-.4.5-.2.9-.6 1.2-1l.2-.3.2.3c.6.8 1.5 1.3 2.5 1.5.6 0 1.2-.2 1.8-.5.5-.3 1-.7 1.4-1.2l.2-.3.2.3c.4.5.8.9 1.4 1.2.5.3 1.2.5 1.8.6.8.1 1.6 0 2.3-.3l.3.4c-.9.3-1.8.4-2.7.4zm-15-10c0 .2 0 .3-.1.5-.1.1-.2.3-.4.3-.2.1-.3.1-.5 0s-.3-.1-.4-.3c-.1-.1-.2-.3-.2-.5s0-.3.1-.5c.2-.3.6-.4.9-.3.2 0 .3.1.4.3.2.1.2.3.2.5zm1.1 1.8c0 .2 0 .3-.1.5-.1.1-.2.3-.4.3-.2.1-.3.1-.5 0-.2 0-.3-.1-.4-.3-.1-.1-.2-.3-.2-.5s0-.3.1-.5c.2-.3.6-.4.9-.3.2 0 .3.1.4.3.2.1.2.3.2.5zm1.1 1.9c0 .4-.2.7-.5.8-.2.1-.3.1-.5 0s-.3-.1-.4-.3c-.1-.1-.2-.3-.2-.5s0-.3.1-.5c.2-.3.6-.4.9-.3.2 0 .3.1.4.3.1.2.2.3.2.5zm8.5-.5c0-.2 0-.3-.1-.5-.1-.1-.2-.3-.4-.3-.2-.1-.3-.1-.5 0-.2 0-.3.1-.4.3-.1.1-.2.3-.2.5s0 .3.1.5c.1.1.2.2.4.3s.3.1.5 0c.2 0 .3-.1.4-.3.2-.2.2-.4.2-.5zm1.1-1.9c0-.2 0-.3-.1-.5-.1-.1-.2-.3-.4-.3-.2-.1-.3-.1-.5 0-.3.1-.6.4-.6.8 0 .2 0 .3.1.5.1.1.2.2.4.3s.3.1.5 0c.2 0 .3-.1.4-.3.2-.2.2-.4.2-.5zm1-1.9c0-.2-.1-.4-.2-.5-.1-.1-.2-.2-.4-.3s-.3-.1-.5 0c-.2 0-.3.1-.4.3-.1.1-.2.3-.2.5s0 .3.1.5c.1.1.2.2.4.3s.3.1.5 0c.2 0 .3-.1.4-.2.2-.2.3-.4.3-.6zm-26.9 2.2c0 .2-.1.3-.3.4h-.2c-.1 0-.1-.1-.2-.1-.1-.1-.1-.1-.1-.2v-.2c0-.1.1-.1.1-.2.1 0 .1-.1.2-.1h.1c.1 0 .1.1.1.1l.1.1c.2 0 .2.1.2.2zm-1.8 3.9c0 .1 0 .2-.1.2 0 .1-.1.1-.2.1h-.2c-.1 0-.1-.1-.2-.1-.1-.1-.1-.1-.1-.2v-.2c0-.1.1-.1.1-.2.1 0 .1-.1.2-.1s.2 0 .3.1c.2.2.2.3.2.4zm2 4c0 .1 0 .2-.1.2 0 .1-.1.1-.2.1h-.2c-.1 0-.2 0-.2-.1-.1-.1-.1-.3-.1-.4s.1-.1.1-.2c.1 0 .1-.1.2-.1h.1l.1.1.1.1c.2.2.2.2.2.3zm-4.8 6.9c0 .1 0 .2-.1.2 0 .1-.1.1-.2.1h-.2c-.1 0-.2-.1-.2-.1-.1-.1-.1-.1-.1-.2v-.2c0-.1.1-.1.1-.2.1 0 .1-.1.2-.1h.2l.1.1.1.1c.1.2.1.3.1.3zm-4.4 8c0 .1 0 .2-.1.2 0 .1-.1.1-.2.2h-.2c-.2 0-.3-.2-.3-.3v-.2c0-.1.1-.1.1-.2.1 0 .1-.1.2-.1h.2c.1 0 .2.1.2.2.1.1.1.1.1.2zm.7 8c0 .1 0 .2-.1.2 0 .1-.1.1-.2.2h-.2c-.2 0-.3-.2-.3-.3v-.2c0-.1.1-.1.1-.2.1 0 .1-.1.2-.1h.2c.1 0 .2.1.2.2.1.1.1.1.1.2zm3.7 1.8c0 .1 0 .2-.1.2 0 .1-.1.1-.2.2h-.2c-.1 0-.2-.1-.2-.1-.1-.1-.1-.1-.1-.2v-.2c0-.1.1-.1.1-.2.1 0 .1-.1.2-.1h.2s.1 0 .1.1l.1.1c.1.1.1.1.1.2zM10.9 43c0 .1 0 .2-.1.2 0 .1-.1.1-.2.2h-.2c-.1 0-.1-.1-.2-.1-.1-.1-.2-.3-.1-.4 0-.1.1-.1.1-.2.1 0 .1-.1.2-.1h.2l.1.1.1.1c.1 0 .1.1.1.2zM5 49.8c0 .2-.1.3-.3.4h-.2c-.1 0-.2-.1-.2-.1-.1-.1-.1-.1-.1-.2v-.2c0-.1.1-.1.2-.2.1 0 .1-.1.2-.1h.2c.1 0 .1.1.1.1l.1.1v.2zm-1.9-6.1c0 .1 0 .2-.1.2 0 .1-.1.1-.2.2h-.2c-.1 0-.1 0-.2-.1s-.1-.1-.1-.2v-.2c0-.1.1-.1.2-.2.1 0 .1-.1.2-.1h.2c.1 0 .1.1.1.1l.1.1v.2zm8.8 8.5c0 .1 0 .2-.1.2 0 .1-.1.1-.2.2h-.2c-.1 0-.1-.1-.2-.1-.1-.1-.1-.1-.1-.2v-.2c0-.1.1-.1.1-.2.1 0 .1-.1.2-.1h.2c.1 0 .2.1.2.2 0 0 .1.1.1.2zm-7 2.2c0 .1 0 .2-.1.2 0 .1-.1.1-.2.2h-.2c-.1 0-.2-.1-.2-.1-.1-.1-.1-.1-.1-.2v-.2c0-.1.1-.1.2-.2h.4c.1 0 .1 0 .1.1l.1.1v.1zm3 6c0 .1 0 .2-.1.2 0 .1-.1.1-.2.2h-.2c-.1 0-.2-.1-.2-.1-.1-.1-.2-.1-.2-.2v-.2c0-.1.1-.1.2-.2 0-.1.1-.1.2-.1h.2l.1.1.1.1c0 .1 0 .2.1.2zm6.4-9.1c0 .1 0 .2-.1.2 0 .1-.1.1-.2.2h-.2c-.1 0-.2-.1-.2-.1-.1-.1-.1-.1-.1-.2v-.2c.1-.2.3-.3.5-.2.1 0 .1.1.1.1.1 0 .2.1.2.2zm4.5 2.8c0 .1 0 .2-.1.2l-.2.2h-.2c-.1 0-.1-.1-.2-.1-.1-.1-.1-.2-.1-.3v-.2c0-.1.1-.1.1-.2.1 0 .1-.1.2-.1h.1c.1 0 .1.1.1.1l.1.1c.1.1.2.2.2.3zm2.7 4.7c0 .1 0 .2-.1.2 0 .1-.1.1-.2.2H21c-.2 0-.3-.2-.3-.3v-.2c0-.1.1-.1.1-.2.1 0 .1-.1.2-.1h.2c.1 0 .2.1.2.2.1.1.1.2.1.2zm-4.8 2c0 .1 0 .2-.1.2 0 .1-.1.1-.2.2h-.2c-.2 0-.3-.2-.3-.3v-.2c0-.1.1-.1.1-.1.1 0 .1-.1.2-.1h.2c.1 0 .2.1.2.2 0 0 0 .1.1.1zM27.1 70c0 .1 0 .2-.1.2 0 .1-.1.1-.2.2h-.2c-.1 0-.2 0-.2-.1-.1-.1-.2-.3-.1-.4 0-.1.1-.1.1-.2.1 0 .1-.1.2-.1h.1s.1 0 .1.1l.1.1c.2.1.2.1.2.2zm-8.4-.4c0 .1 0 .2-.1.2 0 .1-.1.1-.2.2-.2.1-.4 0-.5-.2v-.3c0-.1.1-.1.1-.2.1 0 .1-.1.2-.1.3 0 .5.2.5.4zM17.3 71h.2c.1 0 .2.1.2.1.1.1.1.1.1.2v.2c0 .1-.1.1-.2.2-.1 0-.1.1-.2.1s-.2 0-.2-.1c-.1-.1-.1-.1-.1-.2v-.3c.1-.1.1-.2.2-.2zm-5.2.4h.2c.1 0 .1.1.2.1.1.1.1.3.1.4s-.1.1-.2.2h-.2c-.1 0-.2 0-.2-.1-.1-.1-.1-.1-.1-.2v-.3s0-.1.2-.1zm2.4-2.6h.2c.1 0 .1.1.2.1.1.1.1.2.1.3v.2c0 .1-.1.1-.2.2h-.2c-.1 0-.2 0-.2-.1-.1 0-.1-.1-.1-.2v-.4l.2-.1c-.1 0-.1 0 0 0zm5.7 12.7h.2c.1 0 .1.1.2.1.1.1.1.1.1.2v.2c0 .1-.1.1-.2.2-.1 0-.1.1-.2.1s-.2 0-.2-.1c-.1 0-.1-.1-.1-.2v-.4l.1-.1h.1zm-2.4-.9h.2c.1 0 .1.1.2.1.1.1.1.1.1.2v.2c0 .1-.1.1-.2.2-.1 0-.1.1-.2.1s-.2 0-.2-.1c-.1 0-.1-.1-.1-.2v-.4l.1-.1c0 .1 0 0 .1 0zM12.6 75h.2c.1 0 .1.1.2.1.1.1.1.1.1.2v.2c0 .1-.1.1-.2.2-.1 0-.1.1-.2.1s-.2 0-.2-.1c-.1 0-.1-.1-.1-.2v-.3c0-.1.1-.2.2-.2zM14 61.8c0 .1 0 .2-.1.2 0 .1-.1.1-.2.2h-.2c-.2 0-.3-.2-.3-.3v-.2c0-.1.1-.1.1-.2.1 0 .1-.1.2-.1.3 0 .5.2.5.4zM8.7 64c0 .1 0 .2-.1.2 0 .1-.1.1-.2.2h-.2c-.1 0-.2-.1-.3-.1 0-.1-.1-.2-.1-.2v-.2c0-.1.1-.1.2-.2.1 0 .1-.1.2-.1h.2c.1 0 .2.1.2.2.1 0 .1.1.1.2zm-1.8 1.5c0 .1 0 .2-.1.2 0 .1-.1.1-.2.2h-.2c-.1 0-.2-.1-.2-.1-.1-.1-.1-.1-.1-.2v-.2c0-.1.1-.1.2-.2.1 0 .1-.1.2-.1h.2l.1.1.1.1c-.1.1 0 .2 0 .2zm2.8-31.2c0 .1 0 .2-.1.2 0 .1-.1.1-.2.2h-.2c-.1 0-.1 0-.2-.1s-.1-.1-.1-.2v-.2c.1-.2.3-.3.5-.2 0 0 .1 0 .1.1.1 0 .2.1.2.2zm-5-.5c0 .1 0 .2-.1.2 0 .1-.1.1-.2.2h-.2c-.1 0-.1 0-.2-.1s-.1-.1-.1-.2v-.2c0-.1.1-.1.1-.2.1 0 .1-.1.2-.1h.2c.1 0 .2.1.2.2 0 0 .1.1.1.2zM25.3 21c0 .1 0 .2-.1.2 0 .1-.1.1-.2.1h-.2c-.1 0-.2-.1-.2-.1-.1-.1-.1-.1-.1-.2v-.2c0-.1.1-.1.1-.2.1 0 .1-.1.2-.1h.2l.1.1.1.1c.1.2.1.2.1.3zm-5.1 7c0 .1 0 .2-.1.2 0 .1-.1.1-.2.1h-.2c-.2 0-.3-.2-.3-.3v-.2c0-.1.1-.1.1-.2.1 0 .1-.1.2-.1h.1c.1 0 .1.1.1.1l.1.1c.2.2.2.2.2.3zM16 16.1c0 .1 0 .2-.1.2 0 .1-.1.1-.2.1h-.2c-.1 0-.1-.1-.2-.1-.1-.1-.1-.1-.1-.2v-.2c0-.1.1-.1.1-.2.1 0 .1-.1.2-.1h.2l.3.3v.2zm-2.4 3.2c0 .1 0 .2-.1.2 0 .1-.1.1-.2.1h-.2c-.1 0-.1-.1-.2-.1-.1-.1-.1-.1-.1-.2v-.2s.1-.1.2-.1.1-.1.2-.1h.2c.1 0 .2.1.2.2v.2zm16.2 53h-.5c-.1-.7-.4-1.3-.8-1.8-.1-.1-.2-.3-.2-.4-1.1-1.5-2.3-2.9-3.7-4.1-.1.1-.3.2-.4.3l-.1.1c-.3.3-.6.7-.9 1.1-.5 1-.8 2.1-.9 3.3l-.5-.1c.2-1.2.5-2.4 1-3.5.3-.4.6-.8 1-1.2l.1-.1.6-.5.2-.1.1.2c1.4 1.3 2.7 2.8 3.9 4.4.1.1.1.2.2.4.5.5.8 1.2.9 2zm-12.9 3.3c-.3-.3-6.2-7.1-5.7-12.3.2-2.9 1-5.7 2.4-8.1l.2-.3.2.3s1.8 3.1 2.7 4.3c.4.6 1.1 1.3 1.8 2.1.7.7 1.4 1.5 2 2.4l.5.7c.9 1 1.4 2.2 1.5 3.6.1.8 0 1.7-.3 2.5l-.4-.2c.3-.7.4-1.5.3-2.3-.2-1.2-.7-2.3-1.5-3.3l-.5-.7c-.6-.8-1.2-1.6-1.9-2.3-.7-.8-1.4-1.5-1.8-2.1-.8-1-2-3.2-2.5-4-1.2 2.3-2 4.9-2.2 7.5-.5 5.1 5.5 11.9 5.6 12l-.4.2zm-5.6-9.9c-.1-.3-2.5-6.3-2.5-9.4 0-3.9 1.5-7.7 4.1-10.5l.3-.3.1.3s1.9 5 2.1 5.5c.1.1.3.5.5 1 .8 1.4 1.5 2.8 2.1 4.3.2 1.5.3 2.9.2 4.4h-.5c.1-1.4 0-2.9-.2-4.3-.6-1.5-1.2-2.9-2-4.2-.3-.5-.4-.8-.5-1-.2-.5-1.6-4-2-5.2-2.4 2.8-3.7 6.3-3.7 9.9 0 3 2.4 9.1 2.4 9.2l-.4.3zm7-4.2l-.5-.1c.2-1.5.7-2.9 1.4-4.2.6-.9 1-1.8 1.4-2.8l.1-.4.3.3c.1.1 1.6 1.5 1.9 1.8.9 1.2 1.6 2.5 1.8 4l-.5.1c-.2-1.4-.8-2.7-1.7-3.8-.2-.3-1.2-1.1-1.6-1.6-.4.9-.8 1.8-1.3 2.6-.6 1.3-1.1 2.6-1.3 4.1zM14 74c-1.8-.1-3.5-.5-5.1-1.3l.2-.4c4.7 2 6.3 1 6.3 1l.3.4c-.5.2-1.1.4-1.7.3zm-2.4-7.7c-.8-1.3-1.9-2.5-3.2-3.3-.8-.4-1.7-.7-2.6-.9-1-.1-1.9-.6-2.6-1.3-.9-1.4-.9-1.9-.5-6.1v-.1c0-1.2.3-2.3.7-3.4l.2-.2.2.1c1 .7 1.9 1.4 2.7 2.3 2 1.9 2.8 2.6 2.8 2.6l-.3.4s-.8-.7-2.8-2.7l-2.4-2.1c-.3 1-.5 1.9-.6 2.9v.1c-.3 4.1-.4 4.5.4 5.8.6.6 1.4 1 2.3 1.1.9.2 1.9.5 2.7 1 1.4.8 2.6 2 3.4 3.4l-.4.4zM7.7 54.7h-.5s.2-4.6 0-6.4c-.3-2.2-1.1-4.3-2.3-6.1-1.1-1.4-2.2-2.7-3.5-3.9l.3-.3c1.3 1.2 2.5 2.6 3.5 4 1.3 1.9 2.1 4.1 2.4 6.3.2 1.8.1 6.3.1 6.4zm8.9-1.2l-.5-.1c0-.1.3-2.4.5-3 .1-.4-.9-3-2-5.2V45c.1-1.5-.1-3-.4-4.5-.4-1.3-.9-2.5-1.5-3.7-.6.6-2.1 2.3-3.1 3.7-1.3 1.6-2 6.8-2 6.8l-.5-.1c0-.2.8-5.3 2.1-7.1s3.3-3.9 3.4-3.9l.2-.2.2.3c.8 1.3 1.4 2.6 1.8 4 .4 1.5.5 3 .4 4.6.5 1.2 2.2 4.8 2 5.5s-.6 3.2-.6 3.1zM18.4 27l-.1-.5c1.8-.6 3.7-.6 5.4 0l-.2.5c-1.6-.6-3.4-.6-5.1 0zm-4.3 53.5l-.2-.5c2.3-.9 4.8-.9 7.1-.1l-.2.4c-2.1-.7-4.5-.7-6.7.2zM8.3 29.3l-.5-.1c.5-2.3.1-4.6-1.2-6.6l.4-.2c.7 1 1.1 2.2 1.3 3.3.3 1.2.3 2.4 0 3.6zm-1.5 7c-.1-1.2-.5-2.3-1.1-3.3s-1.4-1.9-2.3-2.6l.3-.4c1 .7 1.8 1.7 2.4 2.7.6 1.1 1 2.2 1.1 3.5l-.4.1zm16.1-23.7c.4-.5.8-.9 1.4-1.2s1.1-.5 1.7-.7c0 0-1.1.8-1.5 1s-1.6.9-1.6.9zm-10 5.3c.2-.8.6-1.6 1.1-2.4.6-.7 1.2-1.3 1.9-1.9 0 0-1 1.7-1.3 2.2-.3.5-1.7 2.1-1.7 2.1zm9.2 4.6c.3-.9.7-1.7 1.3-2.4.6-.7 1.3-1.3 2.1-1.8 0 0-1.1 1.7-1.5 2.2s-1.9 2-1.9 2zM18 32c.3-.6.7-1.2 1.1-1.7.5-.5 1.1-.9 1.7-1.2 0 0-1 1.2-1.3 1.5S18 32 18 32zm-1.1 8.4c0-.7 0-1.4.3-2s.6-1.2 1-1.8c0 0-.3 1.5-.5 1.9s-.8 1.9-.8 1.9zm3.2 14c-.5-.7-.8-1.5-.9-2.4s-.1-1.7 0-2.6c0 0 .5 1.8.6 2.4s.3 2.6.3 2.6zm-7.5 0c-.3-.9-.4-1.8-.4-2.7.1-.9.3-1.8.6-2.7 0 0 .1 2 .1 2.7s-.3 2.7-.3 2.7zm-.2-9.1c-.3-.8-.4-1.6-.4-2.4 0-.8.2-1.6.4-2.3 0 0 .2 1.8.2 2.3s-.2 2.4-.2 2.4zm-1.6 3.5l-.4-1c-.2-.5-.3-1-.3-1.5s.1-1 .2-1.5l.3-1.3.1 1.3s.1 1.1.1 1.4-.1 1.4-.1 1.5l.1 1.1zm-4.4 3c-.3-.8-.4-1.6-.4-2.4 0-.8.2-1.6.4-2.3 0 0 .2 1.8.2 2.4s-.2 2.3-.2 2.3zm11-3.6c-.1-.8-.1-1.6.1-2.4.2-.8.5-1.5.9-2.2 0 0-.2 1.8-.4 2.3s-.6 2.3-.6 2.3zm-13.3-.6c-.3-.9-.4-1.9-.3-2.9.1-.9 0-1.8-.3-2.7.5.8.8 1.7 1 2.6-.1.7-.4 3-.4 3zm6.2-10.9c0-.9.1-1.8.4-2.6.4-.8.8-1.6 1.3-2.3 0 0-.5 1.9-.7 2.5s-1 2.4-1 2.4zm-2.5 4.2c0-.6.2-1.2.4-1.8.3-.6.6-1.1 1-1.6 0 0-.4 1.3-.6 1.7s-.8 1.7-.8 1.7zm-3.9-1.6c-.1-.9 0-1.8.3-2.6s.7-1.6 1.2-2.4c0 0-.3 1.9-.5 2.5s-1 2.5-1 2.5zm5.6 22.5c-.4-.5-.8-1.2-1-1.8-.2-.7-.3-1.4-.3-2.1 0 0 .6 1.4.8 1.9s.5 2 .5 2zm-2.7-2.7c-.4-.7-.6-1.4-.8-2.2-.1-.8-.1-1.5 0-2.3 0 0 .4 1.6.5 2.2s.3 2.3.3 2.3zm3.5 9.7c-.8-.7-1.6-1.5-2.2-2.4-.5-.9-.9-1.8-1.2-2.8 0 0 1.4 1.8 1.8 2.5s1.6 2.7 1.6 2.7zm11.2 7.7c-.6-.9-1.1-1.8-1.4-2.9-.2-1-.4-2-.4-3 0 0 .9 2.2 1.1 2.9s.7 3 .7 3zm-4.2 1.4c-.8-.4-1.5-1-2.1-1.6-.5-.6-1-1.3-1.4-2.1 0 0 1.4 1.3 1.9 1.7l1.6 2zm4.7 6.5c-.8-.1-1.6-.3-2.4-.7-.7-.4-1.3-.8-1.9-1.3 0 0 1.7.6 2.2.8s2.1 1.2 2.1 1.2zM6.2 60c-.5-.3-1-.7-1.4-1.2l-.9-1.5s.9.9 1.2 1.3S6.2 60 6.2 60zm3.9 11c-.5-.3-1-.7-1.4-1.2-.3-.5-.6-1-.9-1.6 0 0 .9.9 1.2 1.3s1 1.5 1.1 1.5zm6.2 8c-.6-.2-1.1-.5-1.5-.9s-.8-.9-1.1-1.4c0 0 1 .8 1.4 1.1s1.2 1.2 1.2 1.2zm4-1.9c-.5-.4-.9-.8-1.2-1.3-.3-.5-.5-1.1-.7-1.7 0 0 .8 1 1 1.4s.9 1.6.9 1.6zm4-3.4c-.6-.1-1.1-.4-1.6-.7-.5-.4-.9-.8-1.3-1.3 0 0 1.1.6 1.5.9s1.4 1.1 1.4 1.1zm-12.4-4.1c-.5-.4-.8-.9-1.1-1.4-.2-.5-.4-1.1-.6-1.7 0 0 .7 1.1.9 1.5l.8 1.6zm3-2.4c-.5-.4-.8-.9-1.1-1.4-.2-.5-.4-1.1-.6-1.7 0 0 .7 1.1.9 1.5l.8 1.6zm3.7-.7c-.4-.5-.6-1-.8-1.6-.1-.6-.2-1.2-.2-1.8 0 0 .5 1.2.6 1.6s.4 1.8.4 1.8zm6.7 4.8c-.3-.5-.6-1.1-.7-1.7s-.1-1.2-.1-1.8c0 0 .4 1.3.5 1.7s.3 1.8.3 1.8zM11.4 56.5c-.3-.5-.5-1.1-.6-1.7-.1-.6-.1-1.2 0-1.8 0 0 .4 1.3.4 1.7s.2 1.8.2 1.8zm8.9-39.8c.6-.6 1.4-1 2.2-1.3.8-.2 1.7-.4 2.5-.4 0 0-1.7.8-2.3 1-.6.3-2.4.7-2.4.7zm-4.5 47.5c-.5-.8-.8-1.7-1-2.6-.1-.9-.1-1.9-.1-2.8 0 0 .6 2 .7 2.6s.4 2.8.4 2.8zm7 .9c-.3-.9-.4-1.8-.4-2.7.1-.9.3-1.8.6-2.7 0 0 .1 2 .1 2.7s-.4 2.7-.3 2.7zM19.9 25c.5-.4 1-.8 1.6-1s1.3-.3 1.9-.4c0 0-1.3.6-1.7.8s-1.8.6-1.8.6zm-3.2-4.2c.5-.4 1.1-.6 1.7-.8.7-.1 1.3-.2 2-.2 0 0-1.3.5-1.8.6s-1.9.4-1.9.4zm.2 30.6l-.4-.3 2.6-4.2 2.4 4-.4.3-2-3.3-2.2 3.5zm-6.3-30c0 .1 0 .2-.1.2 0 .1-.1.1-.2.1-.2.1-.4 0-.5-.2v-.3c0-.1.1-.1.1-.2.1 0 .1-.1.2-.1h.1c.1 0 .1.1.1.1l.1.1c.2.2.2.3.2.3zm.3 2.1c0 .1 0 .2-.1.2 0 .1-.1.1-.2.1h-.2c-.2 0-.3-.2-.3-.3v-.2c0-.1.1-.1.1-.2.1 0 .1-.1.2-.1h.1l.1.1.1.1c.2.2.2.3.2.3zm-3.6 1.9c0 .1 0 .2-.1.2 0 .1-.1.1-.2.1-.2.1-.4 0-.5-.2v-.3c0-.1.1-.2.1-.2h.3c.1 0 .1.1.1.1l.1.1c.2.1.2.1.2.2zm8.1-1c0 .1 0 .2-.1.2 0 .1-.1.1-.2.1h-.2c-.2 0-.3-.2-.3-.3v-.2c0-.1.1-.1.1-.2.1 0 .1-.1.2-.1h.2c.1 0 .2.1.2.2s0 .2.1.3zM15 45.3l.1-1.4c.1-1.8.1-3.6 0-5.4-.1-.3-.2-.6-.4-.9-.2-.3-.3-.7-.4-1v-1.3h-.4l-.3.1v-2.2L13 33v-4.2c-1.2 1.1-4.3 4.2-5.3 6.1C6.6 37.2 6 43.2 6 43.3h-.4c0-.3.6-6.2 1.7-8.5s5.5-6.4 5.7-6.6l.4-.4v4.9l.8.2V35h.3c.1 0 .2.1.3.1.1.2.1.3.2.5 0 .2 0 .4-.1.5v.5c0 .1.1.2.1.3l4.5-4 .1 3.1-.2 4.4v.2s0 .1-.1.1l-.1.1-.4.3-1 .7c-.9.5-1.7 1.3-2.3 2.3l-.5 1.2zm.1-8c.2.4.4.7.5 1.1.2 1.5.2 3.1.1 4.7.6-.7 1.2-1.3 2-1.8.6-.4 1-.7 1.3-.8l.2-4.5-.2-2.2-3.9 3.5zm-.3-.6l-.5-.1.3-.9c.9-1.4 1.6-2.7 2.3-4.2.3-.8.5-1.5.6-2.4.1-.5.2-1 .3-1.6.5-1.7 1.2-3.3 1.9-4.9-1.4-.1-2.8-.1-4.2 0-1.1.1-2.6 1.6-3.8 2.7-.5.5-1 1-1.4 1.3-1.4 1.1-4 6.5-4.1 6.5l-.4-.2c.1-.2 2.8-5.5 4.2-6.7.4-.3.9-.8 1.4-1.3 1.3-1.3 2.8-2.7 4.1-2.8 1.6-.1 3.1-.1 4.7 0h.3l-.1.3c-.8 1.7-1.4 3.4-2 5.2-.1.5-.2 1.1-.3 1.5-.1.8-.3 1.7-.6 2.5-.7 1.5-1.5 2.9-2.4 4.3l-.3.8zm-2.9-12.1s-.2-1.5-.3-3.5c-.1-.6-.3-1.3-.6-1.8-.3-.6-.7-1-1.2-1.4l.3-.4c.6.4 1 1 1.4 1.6.3.6.5 1.3.6 2 0 1.2.1 2.3.3 3.5h-.5zm.4.1l-.4-.2s.6-1.3 1.6-2.9 5.3-3.5 7.2-3.9c2.1-.4 4.2-.6 6.3-.5l-.1.5c-2 0-4.1.1-6.1.5-1.9.5-6 2.2-6.9 3.7s-1.5 2.8-1.6 2.8zm3.3-4.4l-.5-.1c.2-.8.5-1.6.8-2.4.5-1.1 1.1-2.1 1.7-3 .4-.6.7-1.1.9-1.4.2-.9.1-1.8-.2-2.7l.5-.1c0 .1.7 2.1.1 3.1-.2.4-.5.9-.9 1.4-.6.9-1.2 1.9-1.7 2.9-.3.8-.5 1.5-.7 2.3zm-9.7 9.8c-.1-.7 0-1.3.1-2 .2-.6.5-1.2.8-1.8 0 0-.2 1.5-.3 1.9s-.6 1.9-.6 1.9zm8.4-2.1c.2-.8.6-1.6 1.1-2.3.6-.7 1.2-1.3 1.9-1.8 0 0-.9 1.6-1.3 2.2S14.3 28 14.3 28zm0 3.9c.2-.6.4-1.2.8-1.8.4-.5.9-1 1.4-1.4 0 0-.7 1.2-1 1.6s-1.3 1.6-1.2 1.6zM11 28.5c.2-.6.4-1.2.8-1.7s.9-1 1.4-1.4c0 0-.7 1.2-1 1.6S11 28.5 11 28.5zM43.9 7.7c-.2 1.4-1.5 2.3-2.9 2-1-.2-1.9-1-2-2 .1-.6.4-1.1.8-1.5.9-.8 2.3-.8 3.2 0 .5.4.8 1 .9 1.5zM55.2 19l-.4-.2s.4-1-.8-4.8c-.8-2.5-2.4-4.6-4.4-6.2l.3-.4c2.1 1.7 3.7 3.9 4.6 6.5 1.2 4 .8 5 .7 5.1zM28 18.6h-.5c.3-1.7.8-3.4 1.4-5.1.8-2.5 2.3-4.7 4.3-6.3l.3.4c-1.9 1.5-3.4 3.6-4.1 6-.7 1.7-1.1 3.4-1.4 5zm24.5 1.2l-.5-.2c-.1-1.3-.2-2.5-.5-3.7-.2-2-1.2-3.9-2.8-5.2l.3-.4c1.7 1.4 2.8 3.4 3 5.6.3 1.2.5 2.5.5 3.9zm-22-.4c-.1-1.4.1-2.9.5-4.2.5-2.1 1.5-4 3-5.5l.3.4c-1.4 1.5-2.4 3.3-2.8 5.3-.4 1.3-.6 2.6-.5 4h-.5zm5.9-1.6c-1.1-2-2.8-3.5-4.8-4.5-1.6-.9-3.2-1.5-5-1.8V11c.1 0 1.7.1 5.2 1.8 2.1 1 3.9 2.7 5 4.7l-.4.3zm10.3-.1l-.4-.3c.9-1.3 2.1-2.4 3.4-3.3 1.8-1.3 4-2.1 6.3-2.2v.5c-2.2.1-4.2.9-6 2.2-1.3.8-2.4 1.9-3.3 3.1zM37 15.5c-.6-1.2-1.4-2.3-2.3-3.3-.5-.5-1-1-1.5-1.4-3.1-2-4-2.1-4-2.1v-.5c.1 0 1 .1 4.2 2.2.6.4 1.1.9 1.6 1.5.9 1 1.7 2.2 2.3 3.4l-.3.2zm9.2.1l-.5-.2c.6-1.2 1.3-2.3 2.3-3.2.2-.3.5-.5.8-.8l.7-.7c2.4-2.2 4-2.2 4-2.2V9s-1.5 0-3.7 2l-.7.7c-.3.2-.5.5-.7.7-.9 1-1.6 2-2.2 3.2zm-12.7 3.6s-.8-1.5-3.6-2.7-3.7-1.2-3.7-1.2v-.5c.1 0 1 0 3.9 1.3s3.8 2.9 3.8 2.9l-.4.2zm16.4.6l-.4-.3c.7-.8 1.6-1.6 2.5-2.2 1.4-1.2 3.2-1.9 5.1-2v.5c-1.8.1-3.4.8-4.8 1.9-.9.6-1.7 1.3-2.4 2.1zm-.2-.1c-.9-5-2.5-6.2-2.5-6.2l.3-.4c.1.1 1.7 1.2 2.7 6.5l-.5.1zm-15.9-.4l-.5-.1c1-5.3 2.7-6.4 2.8-6.5l.3.4c0 .1-1.7 1.2-2.6 6.2zm6.6-4.3l-1.4-.2-4-7.1 1.6.3 3.8 7zm-1-.7h.2l-3.2-6-.2-.1 3.2 6.1zm3.3.9L46.5 8l1.4-.3-3.8 7.1-1.4.4zm4.1-6.7l-3.2 6 .2-.1 3.2-6-.2.1zM35.7 20.4v.4c-.1.3-.3.5-.6.5s-.6-.2-.6-.6v-.2c0-.1.1-.2.2-.3.2-.2.3-.2.4-.2s.3 0 .4.1c.1 0 .2.1.2.3zm6.4.1v.4c0 .1-.1.2-.2.3-.1.1-.2.1-.4.1-.3 0-.5-.2-.6-.4v-.4c0-.1.1-.2.2-.3.1-.1.2-.1.4-.1.3 0 .5.2.6.4zm6.1 0v.4c0 .1-.1.2-.2.3-.1.1-.2.1-.4.1-.1 0-.3 0-.4-.1-.1-.1-.2-.2-.2-.3v-.4c.1-.3.3-.4.6-.4.1 0 .3 0 .4.1.1 0 .2.1.2.3zm-10.3-9.2l-.7-1.3 2.4-1.3 1.6.6-3.3 2zm0-1.1l.2.5 2-1.3-.5-.2-.3.1-1.4.9zm7.4 1.1l-3.4-2.2 1.6-.6.4.3L46 9.9l-.7 1.4zm-2.4-2.1l2.2 1.4.3-.6-2-1-.5.2zM35.3 70h-1.2V46h1.2v24zm-2.5 0h-1.2V46h1.2v24zm5.1 0h-1.2V46.1h1.2V70zm2.5.1h-1.2V46h1.2v24.1zm2.5-.1h-1.2V45.9h1.2V70zm2.7.1h-1.2v-24h1.2v24zm2.7-.1h-1.2V46h1.2v24zm2.4.1h-1.2V45.9h1.2v24.2zM34.4 34h-1.2v-5.5h1.2V34zm2.5.1h-1.2v-5.6h1.2v5.6zm2.4 0h-1.2v-5.7h1.2v5.7zm2.4 0h-1.2v-5.6h1.2v5.6zm2.5 0H43v-5.6h1.2v5.6zm2.5 0h-1.2v-5.6h1.2v5.6zm2.5 0H48v-5.7h1.2v5.7zM22.6 81.9c-1.8-1.6-3.5-3.3-5-5.2-1-1.3-1.5-2.9-1.5-4.6 0-.3 0-.6-.1-.9-.1-1.9 0-3.7.2-5.6l.1-.6.4.4c1 1.2 2.1 2.4 3.3 3.4.2.1.4.3.6.4 1.1.8 2.3 1.5 3.5 2.1 1.4.6 2.4 1.9 2.7 3.4l-.5.1c-.1-.7-.4-1.3-.8-1.8s-1-.9-1.6-1.2c-1.3-.6-2.5-1.3-3.6-2.1-.2-.1-.4-.2-.5-.4-1.1-1-2.1-2-3-3.1-.2 1.7-.2 3.3-.1 5 0 .3.1.6.1 1 0 1.5.5 3 1.4 4.3 1.5 1.9 3.2 3.6 5 5.1l-.6.3zm35.1-58.1c.5.4 1.1.9 1.6 1.4.3.3.6.7.8 1-.4-.2-.7-.5-1.1-.8-.2-.3-1.3-1.6-1.3-1.6zm2.3-.4c.2.5.4 1 .5 1.6l.2 1c-.2-.3-.3-.6-.4-.9-.1-.2-.3-1.6-.3-1.7zm7.9-1.4c.4.9.7 1.9 1 2.9.2.9.3 1.8.3 1.8-.3-.6-.5-1.1-.8-1.7-.1-.5-.5-3-.5-3zm3.3 8.3c.5.9 1 1.8 1.4 2.7.3.8.6 1.8.6 1.8-.4-.5-.7-1.1-1-1.6-.2-.4-1-2.9-1-2.9zm2.3 9.4c.2.8.4 1.6.5 2.5v1.5c-.2-.5-.3-1-.4-1.5-.1-.3-.2-2.5-.1-2.5zm.3 8c-.2 1-.5 2-.8 2.9-.3.8-.8 1.7-.8 1.7.1-.6.2-1.3.4-1.9.1-.4 1.2-2.7 1.2-2.7zM71.5 57c-.3 1-.7 1.9-1.2 2.8-.4.8-1 1.6-1 1.6l.6-1.8c.2-.5 1.6-2.6 1.6-2.6zM67 65.4c-.6.8-1.2 1.7-1.9 2.4-.6.7-1.4 1.3-1.4 1.3.3-.6.7-1.1 1-1.6.4-.4 2.3-2.1 2.3-2.1zm-3.6 6.4c-.5.6-1 1.2-1.6 1.7l-1.2.9.9-1.2c.3-.4 1.9-1.4 1.9-1.4zm-3.5.2c-.3.5-.7.9-1 1.4-.2.3-.5.5-.8.7l.6-.9c.1-.2 1.2-1.2 1.2-1.2zm-2.3-2.7c-.4.6-.8 1.1-1.2 1.7l-.9.9c.2-.4.4-.8.7-1.1.2-.3 1.4-1.5 1.4-1.5zM56 67.8c-.2.7-.3 1.3-.6 2s-.5 1.2-.5 1.2c.1-.4.1-.9.3-1.3.1-.3.8-1.9.8-1.9zm15.2 4.6c-.4.8-.9 1.5-1.5 2.2s-1.1 1.2-1.1 1.2c.2-.5.5-1 .8-1.5.3-.2 1.8-1.9 1.8-1.9zm-6.4-16.2c-.4.8-.9 1.5-1.4 2.3-.5.6-1.1 1.2-1.1 1.2.2-.5.5-1 .8-1.5.2-.3 1.7-2 1.7-2zm12.5 6.3c-.7.9-1.5 1.7-2.3 2.5-.8.7-1.6 1.3-1.6 1.3.4-.6.8-1.2 1.3-1.7.3-.4 2.6-2.1 2.6-2.1zm-14.8-7.3c-.1.9-.2 1.8-.4 2.7-.2.8-.5 1.6-.5 1.6 0-.6.1-1.1.1-1.7.1-.5.8-2.6.8-2.6zm3-8.4c0 1-.1 2-.2 3l-.4 1.8v-1.9c.1-.4.6-2.9.6-2.9zm-.5-6l.6 1.8c.1.6.1 1.2.1 1.2-.2-.4-.3-.8-.4-1.1s-.3-1.9-.3-1.9zm-3.6-12c.6.5 1.1 1 1.6 1.6.4.5.8 1.1.8 1.1-.4-.3-.7-.6-1.1-.9-.2-.2-1.3-1.8-1.3-1.8zm3.9 6.9c.5.7 1 1.5 1.4 2.3.3.7.6 1.5.6 1.5-.4-.4-.7-.9-1-1.3-.1-.4-.9-2.4-1-2.5zm2.1.3l.3 1.8c.2.5.4 1.1.4 1.1 0-.4-.1-.8-.1-1.2 0-.3-.6-1.7-.6-1.7zm-3.6 1c.4.4.9.9 1.4 1.3.4.3.9.6.9.6-.2-.3-.5-.6-.8-.9-.1-.2-1.4-1-1.5-1zm3.8 5.3c-.1.6-.2 1.2-.2 1.8 0 .5.1 1.1.1 1.1.1-.4.2-.8.2-1.1s-.1-1.8-.1-1.8zm-.1 6.7c-.4.4-.8.9-1.2 1.4l-.6 1c.3-.3.6-.5.8-.8.2-.3 1-1.6 1-1.6zm-3.9-.9c0 .6.1 1.2.2 1.8s.3 1.1.3 1.1v-1.2c0-.3-.5-1.7-.5-1.7zm12-6.8c-.3.6-.5 1.1-.7 1.7-.2.5-.3 1.1-.3 1.1.2-.3.4-.7.5-1 .2-.3.5-1.8.5-1.8zm-.4 8.9c-.4.4-.8.9-1.2 1.4l-.6 1c.3-.3.6-.5.8-.8s1-1.6 1-1.6zm-2.5 9.6c-.5.4-.9.8-1.4 1.2-.4.4-.7.9-.7.9.3-.2.6-.5.9-.7s1.2-1.4 1.2-1.4zM68.2 58c-.2.6-.3 1.2-.4 1.8s0 1.1 0 1.1c.1-.4.2-.7.3-1.1s.2-1.8.1-1.8zm6.8 3.9c-.4.5-.7 1-1 1.5s-.5 1-.5 1 .6-.7.7-.9l.8-1.6zm-6.9 5.6c-.5.3-1 .7-1.5 1.1l-.8.8c.3-.2.7-.4 1-.6l1.3-1.3zm3.1 7.7c-.5.3-1 .7-1.5 1.1l-.8.8c.3-.2.7-.4 1-.6s1.3-1.3 1.3-1.3zm-5.2 2c-.5.4-.9.8-1.3 1.3-.3.4-.7.9-.7.9.3-.2.6-.5.9-.7s1.1-1.5 1.1-1.5zm.9 1c-.4.2-.8.3-1.2.5s-.7.4-.7.4c.3-.1.5-.2.8-.3.1 0 1.1-.6 1.1-.6zm3-6.7c-.3.5-.6 1.1-.9 1.6-.2.5-.4 1.1-.4 1.1.2-.3.4-.6.6-1s.7-1.7.7-1.7zm-5.3-6.7c-.3.5-.5 1.1-.8 1.7-.2.5-.3 1.1-.3 1.1.2-.3.4-.7.6-1 .1-.3.5-1.8.5-1.8zm-2.5-.3c-.5.3-1 .7-1.5 1.1l-.8.8c.3-.2.7-.4 1-.6l1.3-1.3zm-1.6-1c-.4.5-.7 1-1 1.6l-.4 1c.3-.3.5-.6.7-.9 0-.3.7-1.7.7-1.7zm-.9-.8c-.4.5-.7 1-1 1.6-.2.3-.3.7-.5 1 .3-.3.5-.6.7-.9s.8-1.8.8-1.7zM63.1 76s-1.4.5-1.8.8-1 .6-1 .6 1-.3 1.2-.4 1.6-1 1.6-1zm8-26.8c-.1.6-.1 1.2-.2 1.8s.1 1.1.1 1.1c.1-.4.1-.8.2-1.2s-.1-1.7-.1-1.7zm.6-7.8c.2.6.4 1.2.7 1.7l.6 1-.3-1.2c-.2-.2-1-1.5-1-1.5zm2.7-9.1c-.1.6-.2 1.2-.2 1.8s.1 1.1.1 1.1c.1-.4.2-.8.2-1.1 0-.2-.1-1.8-.1-1.8zM70 33.4c.5.4 1 .8 1.5 1.1s1 .5 1 .5c-.3-.3-.6-.5-.8-.8-.3-.1-1.7-.8-1.7-.8zm.5-10.1c-.1.6-.2 1.2-.2 1.8 0 .5.1 1.1.1 1.1.1-.4.2-.8.2-1.1 0-.3-.1-1.8-.1-1.8zm-4.2 1.6c.4.7.9 1.3 1.4 1.9.5.5 1.1 1 1.1 1-.2-.4-.5-.9-.8-1.3-.3-.2-1.7-1.6-1.7-1.6zm7.8-2.9c0 .7.1 1.4.2 2s.3 1.2.3 1.2v-1.3c0-.3-.5-1.9-.5-1.9zm-4.9-6.1c.5.3 1 .6 1.5.8.5.2 1 .3 1 .3l-.9-.6c-.3-.2-1.6-.5-1.6-.5zm-11.7-3.6c.3.4.7.8 1.1 1.2l.8.6c-.2-.3-.4-.5-.6-.8-.2-.2-1.3-1-1.3-1zm2.8-2c0 .5 0 1.1.1 1.6l.2 1v-1c0-.2-.3-1.5-.3-1.6zm-2 .4c.2.5.5.9.8 1.4.2.3.4.5.6.8-.1-.3-.3-.6-.4-.9s-1.1-1.3-1-1.3zm5.7 1.2c.3.4.6.8.9 1.1.2.2.4.4.7.6-.2-.3-.3-.5-.5-.7-.2-.2-1.1-1-1.1-1zm.4 17.6c0 .6.1 1.2.2 1.8.1.5.3 1.1.3 1.1v-1.2c0-.4-.5-1.7-.5-1.7zM61 31.1c.5.4 1 .8 1.5 1.1.5.3 1 .5 1 .5-.3-.3-.6-.5-.9-.8-.2-.2-1.6-.8-1.6-.8zm14.3 5.4c.2.4.5.8.7 1.2s.6.7.6.7c-.1-.3-.3-.5-.4-.8-.1-.3-.9-1.1-.9-1.1zM62.9 16.4c.5.6 1 1.1 1.6 1.6.5.4 1.1.8 1.1.8-.3-.4-.6-.7-.9-1.1-.2-.2-1.8-1.3-1.8-1.3zm2.1-.3c.3.5.7.9 1.1 1.4.2.3.5.5.8.7l-.6-.9c-.2-.2-1.3-1.2-1.3-1.2zM57 18c.4.4.9.8 1.3 1.2.4.3.9.6.9.6-.2-.3-.5-.5-.8-.8S57 17.9 57 18zm-.5 2c.6.1 1.1.3 1.7.3h1.1c-.3-.1-.7-.2-1.1-.3s-1.7 0-1.7 0zm6.6-1.3c.5.2 1.1.4 1.7.6.5.1 1.1.2 1.1.2-.3-.2-.7-.3-1-.5-.3 0-1.8-.3-1.8-.3zm-4.8-2c.2.5.5 1.1.8 1.6l.6.9c-.1-.4-.3-.7-.4-1s-1-1.5-1-1.5zm6.6 59.9l-.3-.4c.8-.5 1.6-1.1 2.4-1.8v-.1c.1-.3.2-.7.1-1s-.2-.6-.5-.8c-.2-.2-.4-.4-.5-.6s-.2-.5-.2-.8c0-.2.1-.4.1-.5.1-.2.2-.3.3-.4.7-.4 1.5-.8 2.4-1.1.7-.2 1.3-.6 1.7-1.2v-.3c-.3-.7-.8-1.3-1.3-1.8l-.3-.3.3-.2c.3-.2.6-.5.8-.8.2-.5.1-1.1-.3-1.5-.2-.2-.5-.4-.8-.4s-.6.1-.9.3c-.5.4-.8.9-1 1.5l-.1.4-.3-.3s-1-1.1-1.8-.9-1.3.6-1.7 2.1c-.2 1.1-.3 2.2-.4 3.3v.8l-.4-.7c-.2-.3-.4-.5-.7-.7s-.6-.2-.9-.2c-.4 0-.8.1-1.1.5-.3.3-.4.8-.4 1.2 0 .9 0 1.1-.3 1.2h-.2l-.1-.2.2-.1v-.2h-.1l-.1.1v-.8c0-.3 0-.5.1-.8s.2-.5.4-.7.4-.4.7-.5.5-.2.8-.2c.6 0 1.2.2 1.7.6.1-.9.2-1.8.4-2.7.3-1.5.8-2.1 2-2.4.4 0 .7 0 1.1.1s.7.3.9.6c.2-.6.6-1 1.1-1.4.3-.3.8-.4 1.2-.4.4 0 .8.2 1.1.5.3.3.5.6.5 1 .1.4 0 .8-.1 1.1-.2.3-.4.6-.7.8.5.5.9 1.1 1.2 1.8 0 .1.1.2.1.3 0 .1 0 .2-.1.3-.5.7-1.2 1.2-2 1.5s-1.5.6-2.2 1c-.1.1-.2.2-.2.3-.1.1-.1.2-.1.3 0 .2.1.4.2.6s.2.3.4.4c.3.3.5.7.6 1.1s.1.8-.1 1.2v.1c0 .2-.1.5-2.6 2.2zm7-.3l-.4-.3c.2-.3.3-.6.3-.9s0-.6-.1-.9c-.1-.4-.1-.7-.1-1.1.1-.2.1-.4.1-.6 0-.1 0-.3.1-.4s.2-.3.3-.3c.2-.2.3-.3.4-.5s.1-.4.1-.6-.1-.3-.2-.4-.2-.3-.3-.3c-.5-.4-.9 0-1.3.5-.1.1-.1.2-.2.2-.1.1-.2.1-.3.1h-.1s-.1 0-.1-.1c-.1-.1-.2-.2-.3-.2h-.4c-.1.1-.3.2-.4.3-.1.1-.1.3-.2.4 0 .1 0 .3-.1.4s-.1.2-.2.3c-.1 0-.3.1-.5.1s-.4 0-.6-.1H67l-.2.2-.4-.1c.1-.4.6-.7 1-.6h.1c.2.1.5.1.8 0 0 0 .1-.1.1-.2V71c0-.3.1-.5.2-.7s.3-.4.6-.5c.2-.1.4-.1.6-.1s.4.1.5.2l.1-.1c.1-.2.2-.3.3-.4.1-.1.3-.2.5-.3.4-.1.8-.1 1.1.1.2.1.4.3.5.5s.2.4.2.6c0 .3 0 .6-.2.8-.1.3-.3.5-.5.7l-.2.2c0 .1-.1.2-.1.3 0 .2-.1.5-.1.7-.1.3 0 .6.1.9.3.9.3 1.7-.1 2.4zm-1.5-7.8l-.3-.3.2-.2.2.2-.1-.2s.2-.1 1.2-1c.3-.3.6-.8.6-1.2.1-.5 0-.9-.2-1.4l-.1-.2c-.1-.2-.1-.3-.3-.5-.3-.3-.4-.7-.5-1.1 0-.1 0-.2.1-.3 0-.1.1-.2.2-.3.6-.3 1.2-.3 1.8-.1.1 0 .1 0 .3-.3 0-.1.1-.2.1-.4.3-.6.6-1.2 1-1.8.3-.3.7 0 1.1.2.2.2.5.3.8.3h.1c.6-1.1 2.1-.6 2.6-.4l-.4.5c-1.1-.3-1.7-.3-2 .2 0 .1-.1.2-.2.2-.1.1-.1.1-.2.1-.4 0-.8-.1-1.1-.4-.1-.1-.3-.2-.5-.3-.4.5-.7 1.1-1 1.6 0 .1-.1.2-.1.3-.1.3-.3.8-.8.6-.4-.2-.9-.2-1.4 0 0 0-.1 0-.1.1v.1c0 .3.2.6.4.9.1.2.3.4.3.6 0 .1 0 .1.1.2.5 1 .3 2.3-.5 3.1-.7.7-1 1-1.3 1.2 0 0 0 .1 0 0zm-7-4.7c-.1-.2-.6-1.9.4-2.2.4-.2.7-.2 1.1-.2s.8.1 1.1.3c.1 0 .1.1.2.1h.2c.2-.2.3-.5.2-.8 0-.3 0-.6-.1-.8-.2-.7-.1-1.5.1-2.2.1-.2.1-.3.2-.5.3-.8.7-1.7 1.6-1.6.4.1.8.2 1.2.4.2.1.4.2.6.2.1-.2.1-.4.1-.6 0-.2 0-.5.1-.7s.2-.4.4-.6c.8-.5 1.9-.6 2.4.1.4.5.6 1 .5 1.6 0 .2-.1.4-.2.6-.1.2-.3.3-.4.5-.1 0-.1.1-.1.1 0 .1-.1.1-.1.2.2.5.6.8 1 1.1.2.1.4.2.5.4.1.1.1.2.1.4v.4c-.1.2-.1.5-.1.7l-.4.2c-.1-.3 0-.7.1-1v-.4c.1-.4 0-.5-.1-.5h-.1c-.6-.3-1.1-.8-1.3-1.5 0-.1 0-.3.1-.4l.3-.3.3-.3c.1-.1.1-.3.2-.4 0-.5-.2-1-.5-1.3-.4-.5-1.3-.2-1.8.1-.1 0-.2.1-.2.3v.5c0 .3 0 .6-.2.8-.3.4-.8.2-1.2 0-.3-.2-.6-.3-1-.4-.6 0-.8.4-1.1 1.3-.1.2-.1.3-.2.5-.2.6-.2 1.3-.1 2 .1.3.1.6.1.9.1.5-.1.9-.5 1.2-.1.1-.3.1-.4.1s-.3-.1-.4-.1c-.3-.1-.7-.2-1-.2s-.7.1-1 .2c-.4.1-.2 1.2-.1 1.6l-.5.2zm-1.6-1.5l-.3-.4c.7-.5 1.4-1.1 2-1.7.2-.2.4-.3.6-.4.3-.1.5-.3.8-.5.2-.2.4-.5.5-.7.2-.8.5-1.9 0-2.4l-.2-.2c-.2-.2-.3-.4-.4-.6-.1-.2-.1-.5-.1-.7V54c.1-.4 0-.8-.1-1.2h-.2c-1.6.5-2 .2-2.4-.1-.2-.2-.3-.2-.8.1l-.2-.4c.8-.4 1.1-.3 1.4 0s.5.5 2 0h.3c.1 0 .2.1.3.1.2.2.3.5.3.8.1.3.1.6 0 .9v.7c0 .2 0 .4.1.5.1.2.2.3.3.4l.2.2c.6.6.4 1.8.1 2.8-.1.3-.3.7-.6.9-.3.3-.6.5-.9.6-.2.1-.3.2-.5.3-.8.6-1.5 1.2-2.2 1.7zm3.3-8.6l-.2-.4s.9-.4 1.4-.6c.1 0 .2-.1.2-.2.1-.1.1-.1.1-.2.1-.3.4-.6.7-.7.2-.1.5-.2.7-.2h.2c.1 0 .1 0 .2-.1.1 0 .1-.1.2-.2 0-.1.1-.1.1-.2.3-.7.3-1.5.1-2.3-.1-.2-.2-.4-.4-.5-.1-.1-.4-.2-.6-.1-.3 0-.5-.1-.8-.2-.4-.3-.6-.8-.4-1.3 0-.3.1-.7.1-1 0-.2-.1-.4-.1-.5-.2-.5-.7-.8-1.3-.8-1 .3-1.9.7-2.8 1.2l-.3-.4c.9-.6 1.9-1 3-1.3.2 0 .5 0 .7.1l.6.3c.2.2.4.4.5.6.1.2.2.5.2.8v1c-.1.6 0 .7.2.8s.4.1.6.2c.3 0 .6.1.9.3s.5.5.6.8c.2.8.2 1.7-.1 2.5 0 .2-.2.5-.4.6-.2.1-.5.2-.7.2s-.4 0-.5.1c-.2.1-.4.3-.4.5-.1.1-.1.3-.2.4-.1.1-.2.2-.4.2-.7.1-1.6.5-1.7.6zm8.6 5.2l.2-.8s.2-.8.4-1.5c.1-.3.2-.5.4-.7.1-.2.2-.2.1-.4l-.3-.6c-.2-.3-.3-.6-.4-.9-.2-.7.3-1.6 1.4-2.2.3-.3.6-.7.7-1.1.2-.4.2-.9.2-1.3 0-.1 0-.3-.1-.4-.1-.1-.1-.2-.3-.3-.2-.1-.5-.2-.7-.3-.2-.2-.3-.3-.4-.6-.1-.1-.1-.3-.1-.5s0-.3.1-.5l.1-.1c.3-.5.4-1 0-1.3-.2-.2-.5-.3-.8-.4-.3-.1-.6-.1-.9 0-.1.1-.2.1-.3.3-.1.1-.2.3-.2.4l-.3 1.2c0 .1 0 .3-.1.4 0 .1-.1.3-.2.4-.1 0-.1.1-.2.1h-.2c-.2 0-.4-.1-.6-.2-.2-.1-.3-.2-.5-.2s-.4 0-.6.1c-.2.2-.4.3-.7.4h-.1v1.3c-.1.7-.1 1.4 0 2.1.2.7.4 1.4.7 2l.6 1.2-1-.9c-.3-.3-1.3-1-1.8-.8-.2.1-.5.2-.7.4s-.4.4-.5.6c-.1.2-.2.5-.2.8s0 .5.1.8c.1.4.3.8.5 1.2h-.2v.4l.2.1-.3.1c-.2 0-.4-.1-.8-1.5-.1-.3-.2-.6-.2-.9 0-.3.1-.6.2-.9.1-.3.3-.6.6-.8.2-.2.5-.4.8-.5.6-.2 1.2-.1 1.6.3-.1-.4-.3-.8-.3-1.3-.1-.7-.1-1.5 0-2.2v-1.2c0-.1 0-.2.1-.2 0-.1.1-.1.2-.2.1 0 .1-.1.2-.1.2-.1.3-.2.5-.3.2-.2.5-.3.8-.3s.6.1.8.2c.2.1.3.1.5.2h.1c0-.2.1-.3.1-.5 0-.4.1-.8.2-1.2 0-.2.1-.4.3-.6.1-.2.3-.3.5-.4.4-.1.7-.1 1.1 0s.7.2 1 .4c.6.5.6 1.3.2 1.9l-.1.1v.3c0 .1 0 .2.1.3.1.2.2.3.3.4.1.1.3.2.5.2.2.1.4.2.5.4s.2.4.2.6c0 .5-.1 1-.3 1.5-.2.5-.5.9-.9 1.3-.8.5-1.3 1.1-1.2 1.6.1.3.2.6.4.8.1.2.3.4.3.7v.4c0 .2-.1.3-.2.4-.1.2-.2.3-.3.5l-.2.7c.6-.5 1.1-1.1 1.5-1.8 0-.2 0-.5-.1-.6-.2-.3-.3-.7-.4-1-.1-.1-.1-.3-.1-.4 0-.1 0-.3.1-.4.1-.2.3-.3.5-.3s.3-.1.5-.2c.1-.1.3-.3.3-.4l.1-.1c.5-1 .7-1.2 2-1.1.2 0 .4.1.6.2.2.1.3.2.4.4s.1.4.1.7c0 .2-.1.5-.2.7.1.3.2.6.3.8.3.5.6 1 .3 1.3l-.2.2-.3.3c-.1.1-.1.3-.1.4 0 .3.1.5.3.7l-.1.3c-.2-.3-.4-.6-.4-1 0-.2 0-.5.1-.7s.2-.4.4-.5l.2-.2c-.1-.2-.2-.5-.3-.7-.2-.2-.3-.4-.3-.6-.1-.2-.1-.5 0-.7.1-.1.1-.3.1-.4 0-.1 0-.3-.1-.4-.1-.1-.1-.2-.2-.2-.1-.1-.2-.1-.3-.1-1.1-.1-1.1-.1-1.6.8l-.1.1c-.1.2-.3.4-.4.5-.2.2-.4.3-.6.3-.1 0-.2.1-.3.1v.2c0 .1 0 .1.1.2.1.3.3.6.4.9.2.3.3.6.2 1-.1.7-2 2.3-2.3 2.7l-.7.6zM76 48.7l-.2-.4c.2-.1.3-.2.4-.4s.1-.4.1-.6c0-.1 0-.3.1-.4.1-.1.1-.2.3-.3.1-.1.2-.1.2-.2l-.1-.1c-.8-.5-.5-1.8-.4-2.4 0-.3.2-.6.4-.8.2-.2.4-.4.5-.7.1-.2.2-.4.2-.6 0-.2 0-.4-.1-.6-.1-.2-.1-.4-.2-.6 0-.4-.1-.7-.4-1-.1 0-.2-.1-.4 0-.1 0-.3.1-.4.1-.6.3-1.9.2-2.2-.3-.2-.4-.2-.9-.1-1.4v-.6c0-.1 0-.3-.1-.4 0-.1-.1-.2-.2-.3s-.2-.2-.3-.2c-.1 0-.2-.1-.4-.1-.4 0-.7 0-1.1.2-.3.2-.6.4-.8.7-.2.3.1.7.6 1.2.3.2.4.5.5.8 0 .6-.6.9-1.5 1.3-.6.3-.7.8-.3 2 .4.9 1 1.6 1.7 2.3l.3.3-.4.1-2.1.7c-.3.6-.3 1.2-.1 1.8l-.5.1c-.1-.5-.3-2.1.4-2.3l1.8-.6c-.7-.6-1.2-1.3-1.6-2.1-.2-.6-.7-2.1.6-2.6.9-.4 1.2-.5 1.2-.8-.1-.2-.2-.4-.4-.5-.4-.5-1-1.2-.6-1.8.5-.8 1.4-1.3 2.3-1.1.2 0 .4.1.5.1.2.1.3.2.4.3s.2.3.3.5c.1.2.1.3.1.5v.6c-.1.3-.1.7 0 1 .5.2 1.1.3 1.6.1.2-.1.4-.1.6-.2.2 0 .4 0 .6.1.4.3.6.8.6 1.3 0 .2.1.4.1.5.1.3.2.5.1.8 0 .3-.1.6-.3.8-.2.3-.3.5-.6.8-.2.2-.3.4-.3.6-.1.8-.2 1.6.2 1.9.1 0 .1.1.2.2s.1.2.1.3 0 .2-.1.3-.1.2-.2.3l-.2.2c0 .3 0 .6-.1.9.2.3 0 .5-.3.7zm-8.2-1l-.4-.3c.8-1.2 2.2-3.4 2.1-4.1 0-.2-.1-.4-.1-.6-.1-.8-.1-1.1-.7-1.3-.3-.1-.7-.1-1 0-.1 0-.2.1-.3.1h-.3c-.1 0-.2-.1-.2-.1l-.2-.2c0-.1-.1-.3-.1-.4 0-.2-.1-.4-.2-.6-.1-.2-.3-.3-.5-.3l-.4-.1c-.6-.2-.6-.2-.8 0-.2.2-1.7 1.3-1.7 1.3l-.3-.4s1.5-1 1.8-1.4c.2-.2.4-.3.7-.3.2 0 .5.1.7.2l.4.1c.3.1.5.3.7.5s.3.5.3.8c0 .1 0 .2.1.3h.3c.4-.1.8-.1 1.2 0 .3.1.6.4.8.7.2.3.3.7.2 1 0 .2 0 .4.1.6.1 1.1-2 4.1-2.2 4.5zm2.3-6.3l-.4-.2c.4-.9.6-1.8.6-2.8-.1-.8-.5-1.5-1.1-2l-.2-.2c-1.1-1.3-2-1.7-2.3-1.7-.4.1-.8.3-1.2.5l-1 .5.7-.9c.1-.1.1-.2.1-.3-.1-.3-.3-.5-.6-.6-.8-.5-1-.4-1.3-.1l-.1.1c-.4.3-.9.5-1.4.7l-.2-.5 1.2-.6.1-.1c.5-.4.9-.6 1.9.1.2.1.4.2.5.4l.3.6v.1c.3-.1.5-.2.8-.3.6-.2 1.7.6 2.7 1.8l.2.2c.7.6 1.1 1.4 1.2 2.3.1 1-.1 2-.5 3zm10.5-4c-.6-.8-1.4-1.4-2.3-1.8-.7-.3-1.5-.4-2.3-.3l-.5.1.2-.4c.4-.6.5-1.4.5-2.1-.1-.3-.1-.5-.1-.8-.1-1.3-.3-2.2-1.2-2.1-.7 0-1.4.2-1.9.6l-.3.4-.1-.5s-.4-2.2-1.6-2.1c-.2 0-.3.1-.5.1-.2.1-.3.2-.4.3-.2.4-.2.8-.1 1.2.1.5.3.9.5 1.3l.1.3-.3.1c-.2.1-.5.2-.7.3-.2.2-.3.4-.4.6-.1.9 0 1.5.7 1.8.7.4 1.4.8 2 1.3l1 .3-.1.5-1.1-.3c-.6-.5-1.2-.9-1.9-1.3-.4-.2-.7-.6-.8-1-.2-.4-.2-.9-.1-1.3.1-.3.2-.6.4-.8.2-.2.5-.4.8-.5-.2-.4-.3-.8-.4-1.2-.1-.3-.1-.6 0-.8 0-.3.1-.5.3-.8.1-.2.3-.4.6-.5.2-.1.4-.2.7-.2 1.3-.1 1.8 1.4 2 2.1.6-.3 1.2-.5 1.9-.5 1.5-.1 1.6 1.5 1.7 2.6 0 .2.1.5.1.7.1.7 0 1.4-.4 2.1.7 0 1.5.1 2.2.3 1 .4 1.9 1.1 2.5 2l-.7.3zm-13-2.9h-.5c0-.7 0-1.4-.2-2.1-.2-.3-.4-.8-.7-1.3s-.7-1.2-.9-1.6c-.2-.5-.7-.9-1.2-1.1h-.4c-.2.2-.4.4-.5.7h-.5c0-.7-.2-1.3-.6-1.8-.2-.3-.5-.5-.8-.6-.2.1-.3.2-.4.3-.1.1-.3.2-.5.2s-.4 0-.5-.1c.1-.1 0-.1-.2-.1-.1.1-.2.2-.2.3l-.5-.2c0-.1.1-.3.2-.4l.3-.3c.1 0 .3-.1.4 0 .1 0 .3.1.4.1.3.1.3.1.4.1l.3-.3c.1-.1.3-.2.4-.2.2 0 .5.1.7.3.2.1.4.3.5.5.3.4.6.9.7 1.4l.3-.3c.1-.1.2-.1.4-.1h.4c.3.1.6.3.9.5s.5.5.6.9c.3.6.5 1.1.8 1.6s.5 1 .7 1.3c.2.7.2 1.4.2 2.3zm1.3-2c-1.2 0-2.2-1-2.3-2.3-.2-.9.8-1.3 1.3-1.5l-.4-.7c-.2-.2-1.3-1.1-2-1.8-.9-.7-1.2-1.9-.7-2.9.1-.3.3-.5.6-.7.3-.2.6-.2.9-.2h.3c0-.1 0-.1-.1-.2-.3-.4-.4-1-.4-1.5s.1-1 .4-1.4l.3-.3c.1-.1.3-.2.4-.2.7-.2 1.4-.1 2 .2.6.3.5 1.4.4 1.9.9 0 1.8.1 2.6.3.9.4.8 1.8.8 2.6-.1.5-.1 1-.3 1.4 0 .2-.1.4-.1.5.3-.1.6-.1.8-.1.3 0 .6.1.8.3.6.3.9 1 .8 1.6 0 .2 0 .4.1.6l.1.1h.1c.1-.1.2-.1.3-.3.1-.1.1-.2.1-.4 0-.3.1-.6.3-.8.2-.2.4-.5.6-.6.3-.1.7-.2 1-.2.4 0 .7.1 1 .3l-.2.4c-.5-.3-1.1-.3-1.7-.2-.2.1-.3.3-.4.5s-.2.4-.2.6-.1.5-.2.6c-.1.2-.3.3-.6.4h-.4c-.1-.1-.3-.2-.3-.3-.1-.3-.1-.5-.1-.8.1-.2.1-.5 0-.7s-.3-.4-.4-.5c-.2-.1-.5-.2-.7-.2-.3 0-.5.1-.7.2-.1 0-.1.1-.2.1h-.2l-.1-.1v-.1c0-.3.1-.7.2-1 .1-.5.2-.9.3-1.4.1-.9 0-1.9-.5-2.1-.9-.2-1.8-.3-2.7-.3h-.3L69 21c.1-.5.3-1.5-.1-1.6-.5-.2-1-.3-1.6-.2-.1 0-.2.1-.2.1l-.2.2c-.2.4-.4.8-.4 1.2 0 .4.1.8.4 1.2.1.1.1.2.1.3v.4c-.1.1-.2.2-.3.2-.1 0-.3.1-.4 0-.2 0-.4 0-.6.1s-.3.3-.4.5c-.2.4-.2.9-.1 1.3s.3.8.7 1.1c.8.7 2 1.8 2 1.8v.1l.8 1.4-.3.1s-1.4.4-1.3 1c0 .5.2 1 .6 1.3.3.3.8.5 1.3.5l-.1.5zm-3.8-3.9l-.3-.3.4-.4c.1-.2.1-.4.2-.6l-.3-.3c-.1-.3-.2-.6-.4-.8-.2-.2-.5-.4-.7-.5s-.4-.1-.6 0c-.2.1-.4.2-.5.3l-.4.6-.1-.6c-.1-.9-.3-1.9-.8-2.7-.2-.3-.4-.5-.7-.7s-.6-.3-.9-.4c-.6.1-1.2.4-1.6.8l-.6.5.2-.8v-.5c0-.2-.1-.3-.2-.5-.1-.1-.1-.2-.2-.2-.1-.1-.2-.1-.3-.1-.2-.1-.4-.1-.6 0-.2.1-.4.2-.5.4-.2.3-.3.5-.4.8l-.5-.2c.1-.3.3-.6.4-.9.2-.3.4-.5.7-.6s.6-.1.9-.1c.2 0 .3.1.5.2.1.1.3.2.4.4.1.2.2.5.2.8.4-.3 1-.5 1.5-.6.4 0 .8.1 1.1.4.3.2.6.5.9.8.5.8.7 1.6.8 2.5.2-.1.4-.2.6-.2h.6c.4.1.7.3 1 .6.3.3.5.6.6 1l.1.3c.4.6-.3 1.5-.5 1.6zm.2-5.4l-.4-.2c.2-.4.2-.8.1-1.2-.1-.3-.3-.5-.6-.6-.2 0-.3.1-.4.3l-.3.3c-.4.3-.6-.1-.8-.4-.1-.3-.4-.5-.7-.6s-.6-.2-.9-.4c-.3-.2-.5-.5-.6-.8-.3-1 .8-1.6 1.3-1.9.1 0 .1-.1.2-.1v-.2c0-.1 0-.2-.1-.2 0-.1-.1-.1-.2-.1h-.4c-.3.1-.7 0-1-.2l-.2-.2v-.6c-.1-.6.1-1.2.6-1.6.8-.6 1.3-1 2.4-.3h.1l.6.3h.1c.2-.1.3-.1.5-.1l.2-.1c.3-.1.7-.2 1-.1.3.1.6.2.9.4.4.3.7.8.8 1.3.1.4.3.7.4 1 .6 1 .8.9 1 .8l.2-.1c.2-.2.4-.3.6-.3s.5 0 .7.1l.3.3c.1.1.1.3.2.4 0 .2.2.4.3.5.2.3.5.5.6.9l-.4.3c-.2-.3-.5-.7-.5-.7-.1-.1-.3-.2-.3-.4-.1-.1-.2-.3-.2-.5 0-.1 0-.2-.1-.2 0-.1-.1-.1-.2-.2h-.4c-.1 0-.3.1-.3.2-.1.1-.2.1-.3.2-.6.4-1.1-.1-1.6-.9-.2-.3-.4-.7-.5-1.1s-.3-.8-.7-1.1c-.2-.2-.5-.3-.7-.4-.3 0-.5 0-.8.1l-.3.1c-.1 0-.3.1-.4.1-.3.1-.4.1-1.1-.4h-.1c-.8-.6-1.1-.4-1.8.2-.4.2-.6.7-.4 1.1v.5c.2.1.4.1.7.1h.5c.2.1.3.2.4.3.1.1.2.3.2.5 0 .3-.1.6-.4.8-.6.4-1.2.8-1.1 1.4.1.2.3.5.5.6.2.2.5.3.7.3.4.1.7.4.9.8.1.1.1.2.2.2l.2-.2c.1-.1.2-.2.4-.3.1-.1.3-.1.4-.1l.6.3c.2.1.3.3.4.5.1.3.1.6.1.8.1.4 0 .7-.1.8zm-5.2 55.2h-.7V78c1.3 0 2.6 0 3.9-.2.5-.1.9-.4 1.2-.8v-.4c-.4-.6-.9-1.1-1.5-1.5l-.2-.1.3-.2c.5-.3 1-.8 1.2-1.4.5-1.5.3-2.4-.7-2.7-1.3-.5-2.9 1.3-2.9 1.3l-.3.3V72c-.1-.3-.3-.6-.6-.8-.3-.2-.6-.2-.9-.2-.4.1-.8.4-1.1.7-.3.3-.6.7-.7 1.1l-.3.6c-.5.5-1 1.1-1.5 1.5l-.3-.4c.5-.4 1-.9 1.4-1.4.1-.1.2-.3.3-.5.2-.5.5-.9.8-1.3.4-.3.8-.6 1.3-.8.4-.1.8 0 1.1.2s.6.4.8.8c.5-.6 1.9-1.7 3.2-1.2 1.3.5 1.6 1.6.9 3.3-.2.6-.6 1-1.1 1.4.6.4 1 .9 1.3 1.5v.3c0 .1 0 .2-.1.3-.3.5-.9.9-1.5 1.1-1.1.2-2.2.3-3.3.2zm11-57.3l-.5-.1c.2-1.6 2-2.6 3.2-3.3l.2.4c-1.1.8-2.7 1.7-2.9 3zM23 14.2c-1.5 0-2.9-.3-4.3-.7l.1-.5s4.9 1.6 7.3-.1l.3.4c-1 .6-2.2 1-3.4.9zm40.5 50.1H63c-.1-.4-.2-.8-.5-1.2-.2-.4-.6-.7-.9-.9-.8-.6-1.8-.9-2.8-.8V61c1.1-.1 2.2.2 3.2.8.4.2.8.6 1.1 1 .2.5.4 1 .4 1.5zM60 22.2l-.2-.5c.9-.3 1-1.8 1-1.8h.5c.1.1-.1 1.8-1.3 2.3zm-3.9-4.8l-.4-.2c.1-.2.7-1.8 1.6-2.1.3-.2.7-.2 1-.2.3.1.6.2.9.5l.2.2c.1.2.2.4.4.5s.4.3.6.3h.2v-.1l.5-.1v.3c0 .1 0 .2-.1.3-.1.1-.2.2-.3.2s-.2.1-.3 0c-.3-.1-.6-.2-.8-.4-.2-.2-.4-.4-.5-.7 0-.1-.1-.1-.1-.2-.2-.3-.5-.4-1.3-.1-.9.5-1.4 1.2-1.6 1.8zm6.5-3.3l-.4-.3c1-1.7-1-4.3-1-4.4l.4-.3c0 .2 2.2 3.1 1 5zm5.2 3.4c-.7-1 .3-3.9.4-4.3l.4.2c-.4 1.2-.9 3.3-.5 3.8l-.3.3zm-2.5 64c-.8-.5-1.6-.8-2.5-1-.1 0-.3-.1-.4-.1l-.3-.3c0-.3.1-.7.2-1 .1-.3.4-.6.6-.8-.5.1-1.1.1-1.6.1v-.5c.7.1 1.5 0 2.2-.3l.2-.1.2.2c.1.2 0 .3-.2.5-1 1.1-1.2 1.5-1.1 1.7l.1.1h.1c1 .2 1.9.5 2.7 1.1l-.2.4zM62 83.8c-.3 0-.6-.1-.9-.2-.6-.4-1.1-.9-1.5-1.5l-.2-.3h.2l-.3-.4h.2c.2.1.4.3.5.5.3.5.7 1 1.3 1.3.9.2 1.9.1 2.7-.4l.2.4c-.7.4-1.4.6-2.2.6zm5.4-3.6l-.4-.3c.5-.7.8-1.4 1-2.3 0-.2.1-.3.1-.4v-.3c-.1-.1-.3-.2-.5-.2-.3-.1-.5-.1-.7-.3-.8-.5-.1-1.8 0-2l.4.2c-.2.3-.5 1.2-.2 1.4.2.1.4.2.6.2s.3.1.4.1c.1.1.3.2.4.3.1.1.1.2.1.3v.3c0 .1-.1.3-.1.4-.1.9-.5 1.7-1 2.5l-.1.1zm-8-11.6c-.5 0-1-.1-1.4-.4-.1-.1-.1-.1-.1-.2v-.3c0-.2.1-.3.2-.4.1-.1.2-.3.3-.3l.1-.1v-.2c0-.1-.1-.2-.2-.3-.1-.1-.2-.2-.3-.2-.7-.4-.8-.3-1-.2l-.6.3c-.7.3-1.3.7-1.8 1.2l-.3-.5c.6-.5 1.3-1 2-1.3.1 0 .2-.1.3-.2.3-.3.6-.3 1.5.2.3.2.6.5.7.9 0 .1 0 .3-.1.4s-.1.2-.2.3c-.2.1-.3.3-.3.4v.2c.4.1.7.2 1.1.2l.1.5zm11.6-.4l-.3-.4c.1 0 1.8-1.3 3.1-.6.6.4 1.4.4 2 0l.3.4c-.4.2-.8.3-1.3.3-.4 0-.9-.1-1.3-.3-1-.6-2.5.6-2.5.6zm-18 4.3H29.3v-2.7h23.6l.1 2.7zM29.8 72h22.7v-1.7H29.8V72zm28 8.1H24.4v-3.5h33.4v3.5zm-22.2 1.7h-4.9c-.8 0-1.6.1-2.4.2-1.2.4-2.7 1.6-4.3 2.5-1 .5-2 .9-3 1.2 1.1.5 2.4.8 3.6.8 1-.1 4.1-.8 4.1-.8L23.9 89c1 .3 2.1.5 3.1.4 1.3-.3 2.7-.7 3.9-1.2 1.8-1 3.6-1.8 5.4-2.4l-.7-4zm22 4.6c1.3 0 2.5-.2 3.6-.8-1-.3-2-.7-3-1.2-1.6-.9-3.1-2.1-4.3-2.5-.8-.2-1.6-.2-2.3-.2h-4.9l-.8 4c1.8.7 3.6 1.5 5.4 2.4 1.2.6 2.6 1 3.9 1.2 1.1.1 2.1-.1 3.2-.4l-4.8-3.4c-.1.1 3 .8 4 .9zm-12.5-4.6H37l.7 3.6c2.1-.4 4.4-.4 6.5 0l.9-3.6zm-.2-66.9c-.2-.4-.7-.5-1.1-.4-.5.1-1 .3-1.5.6l.1-.1s.9-1.4.7-2c-.1-.3-.3-.6-.5-.8-.3-.2-.6-.3-.9-.3-.3 0-.6.1-.9.3-.3.2-.4.5-.5.8-.2.6.7 2 .7 2l.1.1-1.5-.6c-.4-.1-.9.1-1.1.4-.2.2-.3.5-.3.8s0 .6.1.8c.1.3.3.5.5.7s.5.3.8.3c.6.1 1.2-.2 1.6-.7.2-.2.4-.5.6-.8.1.3.3.5.5.8.4.5 1 .8 1.7.7.3 0 .6-.2.8-.3.2-.2.4-.4.5-.7.1-.3.1-.6.1-.8-.3-.3-.4-.6-.5-.8zm3.5 71.7c-.3-.1-.5-.2-.9-.3-2-.8-4.2-1.2-6.4-1.1-2.5 0-4.9.5-7.2 1.4l-.2-.4c2.3-.9 4.8-1.4 7.4-1.5 2.2-.1 4.5.3 6.6 1.2.3.1.6.2.8.3l-.1.4zM43.3 3.5c0-.1-.1-.2-.1-.3-.1-.1-.2-.2-.3-.2-.5 0-1 .6-1.1.5s.2-.6.2-1.1c0-.2-.1-.3-.2-.5-.1-.1-.3-.1-.4-.1-.1 0-.3 0-.4.1-.1.1-.2.3-.2.5 0 .5.3.9.2 1.1s-.6-.5-1.1-.5c-.1 0-.2.1-.3.2-.1.1-.1.2-.1.3 0 .2 0 .5.1.6.2.1.3.2.5.2s.4 0 .6-.1c.5-.2.4.2.4.2L41 5.7h.7l-.1-1.4s-.1-.4.4-.2c.2.1.4.1.5.1.2 0 .4-.1.5-.2.3-.1.3-.3.3-.5m77.5 58.8h8.6v-3.4c10 0 15.6-5.9 15.6-13.8s-5.7-13.5-15.6-13.5v-2.7h-8.6v2.7c-9.9 0-15.6 5.6-15.6 13.5s5.6 13.8 15.6 13.8v3.4zm0-11c-4 0-6.9-2.2-6.9-6.1s2.8-6 6.9-6v12.1zm8.5 0V39.2c4 0 6.9 2.2 6.9 6s-2.8 6.1-6.9 6.1zm19.5 9.7h8.5V37.7h10.5V61h8.5V30.2h-27.6V61h.1zm30.6 0h9l2.2-5.5h11.9l2.3 5.5h9.1l-13.1-31h-8.2l-13.2 31zm13.7-12.1l3.5-8.8 3.4 8.8h-6.9z" fill="#ebbd57"/></svg>